<?xml version="1.0" encoding="UTF-8" standalone="no"?><svg xmlns="http://www.w3.org/2000/svg" xmlns:xlink="http://www.w3.org/1999/xlink" contentScriptType="application/ecmascript" contentStyleType="text/css" height="603px" preserveAspectRatio="none" style="width:595px;height:603px;" version="1.1" viewBox="0 0 595 603" width="595px" zoomAndPan="magnify"><defs/><g><!--MD5=[9aca668e977beceb041615dea2600460]
cluster org.consensusj.bitcoin.jsonrpc--><rect fill="#FFFFFF" height="568.06" style="stroke: #000000; stroke-width: 1.5;" width="378" x="22" y="23.94"/><text fill="#000000" font-family="sans-serif" font-size="14" font-weight="bold" lengthAdjust="spacingAndGlyphs" textLength="216" x="103" y="39.4752">org.consensusj.bitcoin.jsonrpc</text><!--MD5=[10730ffe7c16199451d20e3909637dc1]
cluster foundation.omni.rpc--><rect fill="#FFFFFF" height="83" style="stroke: #000000; stroke-width: 1.5;" width="160" x="424" y="505.87"/><text fill="#000000" font-family="sans-serif" font-size="14" font-weight="bold" lengthAdjust="spacingAndGlyphs" textLength="144" x="432" y="521.4052">foundation.omni.rpc</text><!--MD5=[1f1670a4aec9f633a88acec18679b31e]
class org.consensusj.bitcoin.jsonrpc.UntypedRPCClient--><rect fill="#FEFECE" height="32" id="org.consensusj.bitcoin.jsonrpc.UntypedRPCClient" style="stroke: #A80036; stroke-width: 1.5;" width="135" x="137.5" y="58.94"/><ellipse cx="152.5" cy="74.94" fill="#B4A7E5" rx="11" ry="11" style="stroke: #A80036; stroke-width: 1.0;"/><path d="M148.9277,71.2051 L148.9277,69.0469 L156.3071,69.0469 L156.3071,71.2051 L153.8418,71.2051 L153.8418,79.2818 L156.3071,79.2818 L156.3071,81.44 L148.9277,81.44 L148.9277,79.2818 L151.3931,79.2818 L151.3931,71.2051 Z "/><text fill="#000000" font-family="sans-serif" font-size="12" font-style="italic" lengthAdjust="spacingAndGlyphs" textLength="103" x="166.5" y="79.4752">UntypedRPCClient</text><!--MD5=[aa239c022b080d83574a1f532a3a0fab]
class org.consensusj.bitcoin.jsonrpc.AbstractRPCClient--><rect fill="#FEFECE" height="32" id="org.consensusj.bitcoin.jsonrpc.AbstractRPCClient" style="stroke: #A80036; stroke-width: 1.5;" width="135" x="224.5" y="150.94"/><ellipse cx="239.5" cy="166.94" fill="#A9DCDF" rx="11" ry="11" style="stroke: #A80036; stroke-width: 1.0;"/><path d="M239.3633,162.2881 L238.2095,167.3599 L240.5254,167.3599 Z M237.8691,160.0469 L240.8657,160.0469 L244.2109,172.44 L241.7622,172.44 L240.9985,169.377 L237.7197,169.377 L236.9727,172.44 L234.5239,172.44 Z "/><text fill="#000000" font-family="sans-serif" font-size="12" font-style="italic" lengthAdjust="spacingAndGlyphs" textLength="103" x="253.5" y="171.4752">AbstractRPCClient</text><!--MD5=[fc46339dd10738f740a4d1a0656dfcbd]
class org.consensusj.bitcoin.jsonrpc.RPCClient--><rect fill="#FEFECE" height="32" id="org.consensusj.bitcoin.jsonrpc.RPCClient" style="stroke: #A80036; stroke-width: 1.5;" width="87" x="266.5" y="246.07"/><ellipse cx="281.5" cy="262.07" fill="#ADD1B2" rx="11" ry="11" style="stroke: #A80036; stroke-width: 1.0;"/><path d="M283.9731,268.2131 Q283.3921,268.5119 282.7529,268.6613 Q282.1138,268.8107 281.4082,268.8107 Q278.9014,268.8107 277.5815,267.1589 Q276.2617,265.507 276.2617,262.3859 Q276.2617,259.2565 277.5815,257.6047 Q278.9014,255.9528 281.4082,255.9528 Q282.1138,255.9528 282.7612,256.1022 Q283.4087,256.2516 283.9731,256.5505 L283.9731,259.2731 Q283.3423,258.6921 282.7488,258.4223 Q282.1553,258.1525 281.5244,258.1525 Q280.1797,258.1525 279.4949,259.2192 Q278.8101,260.2858 278.8101,262.3859 Q278.8101,264.4777 279.4949,265.5444 Q280.1797,266.611 281.5244,266.611 Q282.1553,266.611 282.7488,266.3412 Q283.3423,266.0715 283.9731,265.4904 Z "/><text fill="#000000" font-family="sans-serif" font-size="12" lengthAdjust="spacingAndGlyphs" textLength="55" x="295.5" y="266.6052">RPCClient</text><!--MD5=[01822649b9154e3677860cd33eaf6fc4]
class org.consensusj.bitcoin.jsonrpc.BitcoinClient--><rect fill="#FEFECE" height="32" id="org.consensusj.bitcoin.jsonrpc.BitcoinClient" style="stroke: #A80036; stroke-width: 1.5;" width="101" x="255.5" y="344.34"/><ellipse cx="270.5" cy="360.34" fill="#ADD1B2" rx="11" ry="11" style="stroke: #A80036; stroke-width: 1.0;"/><path d="M272.9731,366.4831 Q272.3921,366.7819 271.7529,366.9313 Q271.1138,367.0807 270.4082,367.0807 Q267.9014,367.0807 266.5815,365.4289 Q265.2617,363.777 265.2617,360.6559 Q265.2617,357.5265 266.5815,355.8747 Q267.9014,354.2228 270.4082,354.2228 Q271.1138,354.2228 271.7612,354.3722 Q272.4087,354.5216 272.9731,354.8205 L272.9731,357.5431 Q272.3423,356.9621 271.7488,356.6923 Q271.1553,356.4225 270.5244,356.4225 Q269.1797,356.4225 268.4949,357.4892 Q267.8101,358.5558 267.8101,360.6559 Q267.8101,362.7477 268.4949,363.8144 Q269.1797,364.881 270.5244,364.881 Q271.1553,364.881 271.7488,364.6112 Q272.3423,364.3415 272.9731,363.7604 Z "/><text fill="#000000" font-family="sans-serif" font-size="12" lengthAdjust="spacingAndGlyphs" textLength="69" x="284.5" y="364.8752">BitcoinClient</text><!--MD5=[783fd0a98598e26011ef9d6ec1a25193]
class org.consensusj.bitcoin.jsonrpc.BitcoinExtendedClient--><rect fill="#FEFECE" height="32" id="org.consensusj.bitcoin.jsonrpc.BitcoinExtendedClient" style="stroke: #A80036; stroke-width: 1.5;" width="156" x="228" y="442.6"/><ellipse cx="243" cy="458.6" fill="#ADD1B2" rx="11" ry="11" style="stroke: #A80036; stroke-width: 1.0;"/><path d="M245.4731,464.7431 Q244.8921,465.0419 244.2529,465.1913 Q243.6138,465.3407 242.9082,465.3407 Q240.4014,465.3407 239.0815,463.6889 Q237.7617,462.037 237.7617,458.9159 Q237.7617,455.7865 239.0815,454.1347 Q240.4014,452.4828 242.9082,452.4828 Q243.6138,452.4828 244.2612,452.6322 Q244.9087,452.7816 245.4731,453.0805 L245.4731,455.8031 Q244.8423,455.2221 244.2488,454.9523 Q243.6553,454.6825 243.0244,454.6825 Q241.6797,454.6825 240.9949,455.7492 Q240.3101,456.8158 240.3101,458.9159 Q240.3101,461.0077 240.9949,462.0744 Q241.6797,463.141 243.0244,463.141 Q243.6553,463.141 244.2488,462.8712 Q244.8423,462.6015 245.4731,462.0204 Z "/><text fill="#000000" font-family="sans-serif" font-size="12" lengthAdjust="spacingAndGlyphs" textLength="124" x="257" y="463.1352">BitcoinExtendedClient</text><!--MD5=[113ab35e958f457012d0b585bb01c104]
class org.consensusj.bitcoin.jsonrpc.DynamicRpcMethodFallback--><rect fill="#FEFECE" height="38.2656" id="org.consensusj.bitcoin.jsonrpc.DynamicRpcMethodFallback" style="stroke: #A80036; stroke-width: 1.5;" width="193" x="38.5" y="242.94"/><ellipse cx="53.5" cy="262.0728" fill="#B4A7E5" rx="11" ry="11" style="stroke: #A80036; stroke-width: 1.0;"/><path d="M49.9277,258.3379 L49.9277,256.1797 L57.3071,256.1797 L57.3071,258.3379 L54.8418,258.3379 L54.8418,266.4146 L57.3071,266.4146 L57.3071,268.5728 L49.9277,268.5728 L49.9277,266.4146 L52.3931,266.4146 L52.3931,258.3379 Z "/><text fill="#000000" font-family="sans-serif" font-size="12" font-style="italic" lengthAdjust="spacingAndGlyphs" textLength="83" x="106.5" y="259.5416">«Groovy, trait»</text><text fill="#000000" font-family="sans-serif" font-size="12" font-style="italic" lengthAdjust="spacingAndGlyphs" textLength="161" x="67.5" y="273.6744">DynamicRpcMethodFallback</text><!--MD5=[6b22e018904df450234248597272c5a3]
class org.consensusj.bitcoin.jsonrpc.DynamicRPCClient--><rect fill="#FEFECE" height="38.2656" id="org.consensusj.bitcoin.jsonrpc.DynamicRPCClient" style="stroke: #A80036; stroke-width: 1.5;" width="136" x="80" y="341.2"/><ellipse cx="95" cy="360.3328" fill="#ADD1B2" rx="11" ry="11" style="stroke: #A80036; stroke-width: 1.0;"/><path d="M97.4731,366.4759 Q96.8921,366.7747 96.2529,366.9241 Q95.6138,367.0735 94.9082,367.0735 Q92.4014,367.0735 91.0815,365.4217 Q89.7617,363.7698 89.7617,360.6487 Q89.7617,357.5193 91.0815,355.8675 Q92.4014,354.2156 94.9082,354.2156 Q95.6138,354.2156 96.2612,354.365 Q96.9087,354.5145 97.4731,354.8133 L97.4731,357.5359 Q96.8423,356.9549 96.2488,356.6851 Q95.6553,356.4153 95.0244,356.4153 Q93.6797,356.4153 92.9949,357.482 Q92.3101,358.5486 92.3101,360.6487 Q92.3101,362.7405 92.9949,363.8072 Q93.6797,364.8738 95.0244,364.8738 Q95.6553,364.8738 96.2488,364.6041 Q96.8423,364.3343 97.4731,363.7532 Z "/><text fill="#000000" font-family="sans-serif" font-size="12" font-style="italic" lengthAdjust="spacingAndGlyphs" textLength="52" x="135" y="357.8016">«Groovy»</text><text fill="#000000" font-family="sans-serif" font-size="12" lengthAdjust="spacingAndGlyphs" textLength="104" x="109" y="371.9344">DynamicRPCClient</text><!--MD5=[738e549792f5fe5241e833c98817be01]
class org.consensusj.bitcoin.jsonrpc.BitcoinScriptingClient--><rect fill="#FEFECE" height="38.2656" id="org.consensusj.bitcoin.jsonrpc.BitcoinScriptingClient" style="stroke: #A80036; stroke-width: 1.5;" width="150" x="134" y="537.73"/><ellipse cx="149" cy="556.8628" fill="#ADD1B2" rx="11" ry="11" style="stroke: #A80036; stroke-width: 1.0;"/><path d="M151.4731,563.0059 Q150.8921,563.3047 150.2529,563.4541 Q149.6138,563.6035 148.9082,563.6035 Q146.4014,563.6035 145.0815,561.9517 Q143.7617,560.2998 143.7617,557.1787 Q143.7617,554.0493 145.0815,552.3975 Q146.4014,550.7456 148.9082,550.7456 Q149.6138,550.7456 150.2612,550.895 Q150.9087,551.0445 151.4731,551.3433 L151.4731,554.0659 Q150.8423,553.4849 150.2488,553.2151 Q149.6553,552.9453 149.0244,552.9453 Q147.6797,552.9453 146.9949,554.012 Q146.3101,555.0786 146.3101,557.1787 Q146.3101,559.2705 146.9949,560.3372 Q147.6797,561.4038 149.0244,561.4038 Q149.6553,561.4038 150.2488,561.1341 Q150.8423,560.8643 151.4731,560.2832 Z "/><text fill="#000000" font-family="sans-serif" font-size="12" font-style="italic" lengthAdjust="spacingAndGlyphs" textLength="52" x="196" y="554.3316">«Groovy»</text><text fill="#000000" font-family="sans-serif" font-size="12" lengthAdjust="spacingAndGlyphs" textLength="118" x="163" y="568.4644">BitcoinScriptingClient</text><!--MD5=[132fa7a91c448d41aa082d786b65b31e]
class org.consensusj.bitcoin.jsonrpc.BitcoinCLIClient--><rect fill="#FEFECE" height="38.2656" id="org.consensusj.bitcoin.jsonrpc.BitcoinCLIClient" style="stroke: #A80036; stroke-width: 1.5;" width="118" x="75" y="439.47"/><ellipse cx="90" cy="458.6028" fill="#ADD1B2" rx="11" ry="11" style="stroke: #A80036; stroke-width: 1.0;"/><path d="M92.4731,464.7459 Q91.8921,465.0447 91.2529,465.1941 Q90.6138,465.3435 89.9082,465.3435 Q87.4014,465.3435 86.0815,463.6917 Q84.7617,462.0398 84.7617,458.9187 Q84.7617,455.7893 86.0815,454.1375 Q87.4014,452.4856 89.9082,452.4856 Q90.6138,452.4856 91.2612,452.635 Q91.9087,452.7845 92.4731,453.0833 L92.4731,455.8059 Q91.8423,455.2249 91.2488,454.9551 Q90.6553,454.6853 90.0244,454.6853 Q88.6797,454.6853 87.9949,455.752 Q87.3101,456.8186 87.3101,458.9187 Q87.3101,461.0105 87.9949,462.0772 Q88.6797,463.1438 90.0244,463.1438 Q90.6553,463.1438 91.2488,462.8741 Q91.8423,462.6043 92.4731,462.0232 Z "/><text fill="#000000" font-family="sans-serif" font-size="12" font-style="italic" lengthAdjust="spacingAndGlyphs" textLength="52" x="121" y="456.0716">«Groovy»</text><text fill="#000000" font-family="sans-serif" font-size="12" lengthAdjust="spacingAndGlyphs" textLength="86" x="104" y="470.2044">BitcoinCLIClient</text><!--MD5=[48f320ba1369a0b7f321dfb16980e136]
class foundation.omni.rpc.OmniClient--><rect fill="#FEFECE" height="32" id="foundation.omni.rpc.OmniClient" style="stroke: #A80036; stroke-width: 1.5;" width="94" x="440" y="540.87"/><ellipse cx="455" cy="556.87" fill="#ADD1B2" rx="11" ry="11" style="stroke: #A80036; stroke-width: 1.0;"/><path d="M457.4731,563.0131 Q456.8921,563.3119 456.2529,563.4613 Q455.6138,563.6107 454.9082,563.6107 Q452.4014,563.6107 451.0815,561.9589 Q449.7617,560.307 449.7617,557.1859 Q449.7617,554.0565 451.0815,552.4047 Q452.4014,550.7528 454.9082,550.7528 Q455.6138,550.7528 456.2612,550.9022 Q456.9087,551.0516 457.4731,551.3505 L457.4731,554.0731 Q456.8423,553.4921 456.2488,553.2223 Q455.6553,552.9525 455.0244,552.9525 Q453.6797,552.9525 452.9949,554.0192 Q452.3101,555.0858 452.3101,557.1859 Q452.3101,559.2777 452.9949,560.3444 Q453.6797,561.411 455.0244,561.411 Q455.6553,561.411 456.2488,561.1412 Q456.8423,560.8715 457.4731,560.2904 Z "/><text fill="#000000" font-family="sans-serif" font-size="12" lengthAdjust="spacingAndGlyphs" textLength="62" x="469" y="561.4052">OmniClient</text><!--MD5=[c51396beaeea40b6dfd46a486d65eb2a]
reverse link org.consensusj.bitcoin.jsonrpc.UntypedRPCClient to org.consensusj.bitcoin.jsonrpc.AbstractRPCClient--><path d="M234.6,106.56 C248.94,121.39 265.52,138.55 277.17,150.6 " fill="none" id="org.consensusj.bitcoin.jsonrpc.UntypedRPCClient&lt;-org.consensusj.bitcoin.jsonrpc.AbstractRPCClient" style="stroke: #A80036; stroke-width: 1.0; stroke-dasharray: 7.0,7.0;"/><polygon fill="none" points="229.68,111.54,220.81,92.29,239.74,101.81,229.68,111.54" style="stroke: #A80036; stroke-width: 1.0;"/><!--MD5=[1d50bdb015fd96dfd6aefadeaaa2e6dc]
reverse link org.consensusj.bitcoin.jsonrpc.AbstractRPCClient to org.consensusj.bitcoin.jsonrpc.RPCClient--><path d="M299.02,204.26 C301.8,218.65 304.85,234.41 307.02,245.67 " fill="none" id="org.consensusj.bitcoin.jsonrpc.AbstractRPCClient&lt;-org.consensusj.bitcoin.jsonrpc.RPCClient" style="stroke: #A80036; stroke-width: 1.0;"/><polygon fill="none" points="292.18,205.77,295.26,184.8,305.93,203.11,292.18,205.77" style="stroke: #A80036; stroke-width: 1.0;"/><!--MD5=[a5ca26e9263903da5dec1fa0d1b4354e]
reverse link org.consensusj.bitcoin.jsonrpc.UntypedRPCClient to org.consensusj.bitcoin.jsonrpc.DynamicRpcMethodFallback--><path d="M191.57,111.46 C176.77,150.59 153.56,211.99 142.01,242.53 " fill="none" id="org.consensusj.bitcoin.jsonrpc.UntypedRPCClient&lt;-org.consensusj.bitcoin.jsonrpc.DynamicRpcMethodFallback" style="stroke: #A80036; stroke-width: 1.0; stroke-dasharray: 7.0,7.0;"/><polygon fill="none" points="185,109.05,198.62,92.82,198.09,114,185,109.05" style="stroke: #A80036; stroke-width: 1.0;"/><!--MD5=[8a9d41d0dd530b00b362bae902b26c41]
reverse link org.consensusj.bitcoin.jsonrpc.RPCClient to org.consensusj.bitcoin.jsonrpc.DynamicRPCClient--><path d="M265.52,289.5 C238.15,305.77 203.73,326.22 179.23,340.78 " fill="none" id="org.consensusj.bitcoin.jsonrpc.RPCClient&lt;-org.consensusj.bitcoin.jsonrpc.DynamicRPCClient" style="stroke: #A80036; stroke-width: 1.0;"/><polygon fill="none" points="261.9,283.51,282.67,279.31,269.05,295.54,261.9,283.51" style="stroke: #A80036; stroke-width: 1.0;"/><!--MD5=[8f8364d19118bfa10914500cde32890b]
reverse link org.consensusj.bitcoin.jsonrpc.DynamicRpcMethodFallback to org.consensusj.bitcoin.jsonrpc.DynamicRPCClient--><path d="M140.38,302.88 C142.15,316.04 144.05,330.06 145.5,340.83 " fill="none" id="org.consensusj.bitcoin.jsonrpc.DynamicRpcMethodFallback&lt;-org.consensusj.bitcoin.jsonrpc.DynamicRPCClient" style="stroke: #A80036; stroke-width: 1.0; stroke-dasharray: 7.0,7.0;"/><polygon fill="none" points="133.45,303.89,137.71,283.13,147.32,302.01,133.45,303.89" style="stroke: #A80036; stroke-width: 1.0;"/><!--MD5=[0ae1fb1a8848115908d7dbe20010b614]
reverse link org.consensusj.bitcoin.jsonrpc.RPCClient to org.consensusj.bitcoin.jsonrpc.BitcoinClient--><path d="M308.47,299.93 C307.83,315.19 307.13,332.06 306.64,343.91 " fill="none" id="org.consensusj.bitcoin.jsonrpc.RPCClient&lt;-org.consensusj.bitcoin.jsonrpc.BitcoinClient" style="stroke: #A80036; stroke-width: 1.0;"/><polygon fill="none" points="301.47,299.74,309.29,280.05,315.46,300.32,301.47,299.74" style="stroke: #A80036; stroke-width: 1.0;"/><!--MD5=[f516eecb5980a42e8201f221adf3561d]
reverse link org.consensusj.bitcoin.jsonrpc.BitcoinClient to org.consensusj.bitcoin.jsonrpc.BitcoinExtendedClient--><path d="M306,398.2 C306,413.46 306,430.32 306,442.17 " fill="none" id="org.consensusj.bitcoin.jsonrpc.BitcoinClient&lt;-org.consensusj.bitcoin.jsonrpc.BitcoinExtendedClient" style="stroke: #A80036; stroke-width: 1.0;"/><polygon fill="none" points="299,398.32,306,378.32,313,398.32,299,398.32" style="stroke: #A80036; stroke-width: 1.0;"/><!--MD5=[0fc2142f51230388abe931828c88a40a]
reverse link org.consensusj.bitcoin.jsonrpc.BitcoinExtendedClient to org.consensusj.bitcoin.jsonrpc.BitcoinScriptingClient--><path d="M275.43,489.94 C259.71,505.54 241.06,524.05 227.53,537.48 " fill="none" id="org.consensusj.bitcoin.jsonrpc.BitcoinExtendedClient&lt;-org.consensusj.bitcoin.jsonrpc.BitcoinScriptingClient" style="stroke: #A80036; stroke-width: 1.0;"/><polygon fill="none" points="270.21,485.25,289.34,476.13,280.08,495.19,270.21,485.25" style="stroke: #A80036; stroke-width: 1.0;"/><!--MD5=[8e9708e177a3205fa9b04e350fd5b0d3]
reverse link org.consensusj.bitcoin.jsonrpc.DynamicRpcMethodFallback to org.consensusj.bitcoin.jsonrpc.BitcoinScriptingClient--><path d="M94.46,296.04 C81.75,308.72 69.19,324.26 62,341.2 C38.29,397.1 25.37,425.9 57,477.73 C74.78,506.86 107.26,525.58 137.64,537.38 " fill="none" id="org.consensusj.bitcoin.jsonrpc.DynamicRpcMethodFallback&lt;-org.consensusj.bitcoin.jsonrpc.BitcoinScriptingClient" style="stroke: #A80036; stroke-width: 1.0; stroke-dasharray: 7.0,7.0;"/><polygon fill="none" points="89.63,290.97,109.11,282.64,99.08,301.3,89.63,290.97" style="stroke: #A80036; stroke-width: 1.0;"/><!--MD5=[95ac4c27fb303c6f70ae5fe90b49c6d5]
reverse link org.consensusj.bitcoin.jsonrpc.BitcoinClient to org.consensusj.bitcoin.jsonrpc.BitcoinCLIClient--><path d="M259.62,387.29 C230.42,403.63 193.43,424.34 167.16,439.04 " fill="none" id="org.consensusj.bitcoin.jsonrpc.BitcoinClient&lt;-org.consensusj.bitcoin.jsonrpc.BitcoinCLIClient" style="stroke: #A80036; stroke-width: 1.0;"/><polygon fill="none" points="256.17,381.2,277.04,377.54,263.01,393.42,256.17,381.2" style="stroke: #A80036; stroke-width: 1.0;"/><!--MD5=[b55617969e2a19a8861f2e5505783581]
reverse link org.consensusj.bitcoin.jsonrpc.BitcoinExtendedClient to foundation.omni.rpc.OmniClient--><path d="M368.81,483.11 C379.39,487.65 390.13,492.64 400,497.87 C423.9,510.53 449.45,528.1 466.63,540.58 " fill="none" id="org.consensusj.bitcoin.jsonrpc.BitcoinExtendedClient&lt;-foundation.omni.rpc.OmniClient" style="stroke: #A80036; stroke-width: 1.0;"/><polygon fill="none" points="366.2,489.61,350.34,475.55,371.5,476.65,366.2,489.61" style="stroke: #A80036; stroke-width: 1.0;"/><!--MD5=[448a6f8a0fe8f46fe0490289fa54eafc]
@startuml
skinparam packageStyle Rect
skinparam shadowing false
hide empty members

namespace org.consensusj.bitcoin.jsonrpc {
    interface UntypedRPCClient
    abstract class AbstractRPCClient

    class RPCClient
    class BitcoinClient
    class BitcoinExtendedClient

    interface DynamicRpcMethodFallback << Groovy, trait >>
    class DynamicRPCClient << Groovy >>
    class BitcoinScriptingClient << Groovy >>
    class BitcoinCLIClient << Groovy >>

    UntypedRPCClient <|.. AbstractRPCClient
    AbstractRPCClient <|- - RPCClient

    UntypedRPCClient <|.. DynamicRpcMethodFallback
    RPCClient <|- - DynamicRPCClient
    DynamicRpcMethodFallback <|.. DynamicRPCClient

    RPCClient <|- - BitcoinClient
    BitcoinClient <|- - BitcoinExtendedClient
    BitcoinExtendedClient <|- - BitcoinScriptingClient
    DynamicRpcMethodFallback <|.. BitcoinScriptingClient
    BitcoinClient <|- - BitcoinCLIClient
}


namespace foundation.omni.rpc {
    class OmniClient

    org.consensusj.bitcoin.jsonrpc.BitcoinExtendedClient <|- - OmniClient
}


@enduml

PlantUML version 1.2019.12(Sun Nov 03 02:24:54 PST 2019)
(APACHE source distribution)
Java Runtime: OpenJDK Runtime Environment
JVM: OpenJDK 64-Bit Server VM
Java Version: 21+35-2513
Operating System: Mac OS X
Default Encoding: UTF-8
Language: en
Country: US
--></g></svg>