<?xml version="1.0" encoding="UTF-8" standalone="no"?><svg xmlns="http://www.w3.org/2000/svg" xmlns:xlink="http://www.w3.org/1999/xlink" contentScriptType="application/ecmascript" contentStyleType="text/css" height="602px" preserveAspectRatio="none" style="width:595px;height:602px;" version="1.1" viewBox="0 0 595 602" width="595px" zoomAndPan="magnify"><defs/><g><!--MD5=[9aca668e977beceb041615dea2600460]
cluster org.consensusj.bitcoin.jsonrpc--><rect fill="#FFFFFF" height="567" style="stroke: #000000; stroke-width: 1.5;" width="378" x="22" y="24"/><text fill="#000000" font-family="sans-serif" font-size="14" font-weight="bold" lengthAdjust="spacingAndGlyphs" textLength="216" x="103" y="39.5352">org.consensusj.bitcoin.jsonrpc</text><!--MD5=[10730ffe7c16199451d20e3909637dc1]
cluster foundation.omni.rpc--><rect fill="#FFFFFF" height="83" style="stroke: #000000; stroke-width: 1.5;" width="160" x="424" y="505"/><text fill="#000000" font-family="sans-serif" font-size="14" font-weight="bold" lengthAdjust="spacingAndGlyphs" textLength="144" x="432" y="520.5352">foundation.omni.rpc</text><!--MD5=[1f1670a4aec9f633a88acec18679b31e]
class org.consensusj.bitcoin.jsonrpc.UntypedRPCClient--><rect fill="#FEFECE" height="32" id="org.consensusj.bitcoin.jsonrpc.UntypedRPCClient" style="stroke: #A80036; stroke-width: 1.5;" width="135" x="137.5" y="59"/><ellipse cx="152.5" cy="75" fill="#B4A7E5" rx="11" ry="11" style="stroke: #A80036; stroke-width: 1.0;"/><path d="M148.9277,71.2651 L148.9277,69.1069 L156.3071,69.1069 L156.3071,71.2651 L153.8418,71.2651 L153.8418,79.3418 L156.3071,79.3418 L156.3071,81.5 L148.9277,81.5 L148.9277,79.3418 L151.3931,79.3418 L151.3931,71.2651 Z "/><text fill="#000000" font-family="sans-serif" font-size="12" font-style="italic" lengthAdjust="spacingAndGlyphs" textLength="103" x="166.5" y="79.5352">UntypedRPCClient</text><!--MD5=[aa239c022b080d83574a1f532a3a0fab]
class org.consensusj.bitcoin.jsonrpc.AbstractRPCClient--><rect fill="#FEFECE" height="32" id="org.consensusj.bitcoin.jsonrpc.AbstractRPCClient" style="stroke: #A80036; stroke-width: 1.5;" width="135" x="224.5" y="151"/><ellipse cx="239.5" cy="167" fill="#A9DCDF" rx="11" ry="11" style="stroke: #A80036; stroke-width: 1.0;"/><path d="M239.3633,162.3481 L238.2095,167.4199 L240.5254,167.4199 Z M237.8691,160.1069 L240.8657,160.1069 L244.2109,172.5 L241.7622,172.5 L240.9985,169.437 L237.7197,169.437 L236.9727,172.5 L234.5239,172.5 Z "/><text fill="#000000" font-family="sans-serif" font-size="12" font-style="italic" lengthAdjust="spacingAndGlyphs" textLength="103" x="253.5" y="171.5352">AbstractRPCClient</text><!--MD5=[fc46339dd10738f740a4d1a0656dfcbd]
class org.consensusj.bitcoin.jsonrpc.RPCClient--><rect fill="#FEFECE" height="32" id="org.consensusj.bitcoin.jsonrpc.RPCClient" style="stroke: #A80036; stroke-width: 1.5;" width="87" x="266.5" y="246"/><ellipse cx="281.5" cy="262" fill="#ADD1B2" rx="11" ry="11" style="stroke: #A80036; stroke-width: 1.0;"/><path d="M283.9731,268.1431 Q283.3921,268.4419 282.7529,268.5913 Q282.1138,268.7407 281.4082,268.7407 Q278.9014,268.7407 277.5815,267.0889 Q276.2617,265.437 276.2617,262.3159 Q276.2617,259.1865 277.5815,257.5347 Q278.9014,255.8828 281.4082,255.8828 Q282.1138,255.8828 282.7612,256.0322 Q283.4087,256.1816 283.9731,256.4805 L283.9731,259.2031 Q283.3423,258.6221 282.7488,258.3523 Q282.1553,258.0825 281.5244,258.0825 Q280.1797,258.0825 279.4949,259.1492 Q278.8101,260.2158 278.8101,262.3159 Q278.8101,264.4077 279.4949,265.4744 Q280.1797,266.541 281.5244,266.541 Q282.1553,266.541 282.7488,266.2712 Q283.3423,266.0015 283.9731,265.4204 Z "/><text fill="#000000" font-family="sans-serif" font-size="12" lengthAdjust="spacingAndGlyphs" textLength="55" x="295.5" y="266.5352">RPCClient</text><!--MD5=[01822649b9154e3677860cd33eaf6fc4]
class org.consensusj.bitcoin.jsonrpc.BitcoinClient--><rect fill="#FEFECE" height="32" id="org.consensusj.bitcoin.jsonrpc.BitcoinClient" style="stroke: #A80036; stroke-width: 1.5;" width="101" x="255.5" y="344"/><ellipse cx="270.5" cy="360" fill="#ADD1B2" rx="11" ry="11" style="stroke: #A80036; stroke-width: 1.0;"/><path d="M272.9731,366.1431 Q272.3921,366.4419 271.7529,366.5913 Q271.1138,366.7407 270.4082,366.7407 Q267.9014,366.7407 266.5815,365.0889 Q265.2617,363.437 265.2617,360.3159 Q265.2617,357.1865 266.5815,355.5347 Q267.9014,353.8828 270.4082,353.8828 Q271.1138,353.8828 271.7612,354.0322 Q272.4087,354.1816 272.9731,354.4805 L272.9731,357.2031 Q272.3423,356.6221 271.7488,356.3523 Q271.1553,356.0825 270.5244,356.0825 Q269.1797,356.0825 268.4949,357.1492 Q267.8101,358.2158 267.8101,360.3159 Q267.8101,362.4077 268.4949,363.4744 Q269.1797,364.541 270.5244,364.541 Q271.1553,364.541 271.7488,364.2712 Q272.3423,364.0015 272.9731,363.4204 Z "/><text fill="#000000" font-family="sans-serif" font-size="12" lengthAdjust="spacingAndGlyphs" textLength="69" x="284.5" y="364.5352">BitcoinClient</text><!--MD5=[783fd0a98598e26011ef9d6ec1a25193]
class org.consensusj.bitcoin.jsonrpc.BitcoinExtendedClient--><rect fill="#FEFECE" height="32" id="org.consensusj.bitcoin.jsonrpc.BitcoinExtendedClient" style="stroke: #A80036; stroke-width: 1.5;" width="156" x="228" y="442"/><ellipse cx="243" cy="458" fill="#ADD1B2" rx="11" ry="11" style="stroke: #A80036; stroke-width: 1.0;"/><path d="M245.4731,464.1431 Q244.8921,464.4419 244.2529,464.5913 Q243.6138,464.7407 242.9082,464.7407 Q240.4014,464.7407 239.0815,463.0889 Q237.7617,461.437 237.7617,458.3159 Q237.7617,455.1865 239.0815,453.5347 Q240.4014,451.8828 242.9082,451.8828 Q243.6138,451.8828 244.2612,452.0322 Q244.9087,452.1816 245.4731,452.4805 L245.4731,455.2031 Q244.8423,454.6221 244.2488,454.3523 Q243.6553,454.0825 243.0244,454.0825 Q241.6797,454.0825 240.9949,455.1492 Q240.3101,456.2158 240.3101,458.3159 Q240.3101,460.4077 240.9949,461.4744 Q241.6797,462.541 243.0244,462.541 Q243.6553,462.541 244.2488,462.2712 Q244.8423,462.0015 245.4731,461.4204 Z "/><text fill="#000000" font-family="sans-serif" font-size="12" lengthAdjust="spacingAndGlyphs" textLength="124" x="257" y="462.5352">BitcoinExtendedClient</text><!--MD5=[113ab35e958f457012d0b585bb01c104]
class org.consensusj.bitcoin.jsonrpc.DynamicRpcMethodFallback--><rect fill="#FEFECE" height="38.2656" id="org.consensusj.bitcoin.jsonrpc.DynamicRpcMethodFallback" style="stroke: #A80036; stroke-width: 1.5;" width="193" x="38.5" y="243"/><ellipse cx="53.5" cy="262.1328" fill="#B4A7E5" rx="11" ry="11" style="stroke: #A80036; stroke-width: 1.0;"/><path d="M49.9277,258.3979 L49.9277,256.2397 L57.3071,256.2397 L57.3071,258.3979 L54.8418,258.3979 L54.8418,266.4746 L57.3071,266.4746 L57.3071,268.6328 L49.9277,268.6328 L49.9277,266.4746 L52.3931,266.4746 L52.3931,258.3979 Z "/><text fill="#000000" font-family="sans-serif" font-size="12" font-style="italic" lengthAdjust="spacingAndGlyphs" textLength="83" x="106.5" y="259.6016">«Groovy, trait»</text><text fill="#000000" font-family="sans-serif" font-size="12" font-style="italic" lengthAdjust="spacingAndGlyphs" textLength="161" x="67.5" y="273.7344">DynamicRpcMethodFallback</text><!--MD5=[6b22e018904df450234248597272c5a3]
class org.consensusj.bitcoin.jsonrpc.DynamicRPCClient--><rect fill="#FEFECE" height="38.2656" id="org.consensusj.bitcoin.jsonrpc.DynamicRPCClient" style="stroke: #A80036; stroke-width: 1.5;" width="136" x="80" y="341"/><ellipse cx="95" cy="360.1328" fill="#ADD1B2" rx="11" ry="11" style="stroke: #A80036; stroke-width: 1.0;"/><path d="M97.4731,366.2759 Q96.8921,366.5747 96.2529,366.7241 Q95.6138,366.8735 94.9082,366.8735 Q92.4014,366.8735 91.0815,365.2217 Q89.7617,363.5698 89.7617,360.4487 Q89.7617,357.3193 91.0815,355.6675 Q92.4014,354.0156 94.9082,354.0156 Q95.6138,354.0156 96.2612,354.165 Q96.9087,354.3145 97.4731,354.6133 L97.4731,357.3359 Q96.8423,356.7549 96.2488,356.4851 Q95.6553,356.2153 95.0244,356.2153 Q93.6797,356.2153 92.9949,357.282 Q92.3101,358.3486 92.3101,360.4487 Q92.3101,362.5405 92.9949,363.6072 Q93.6797,364.6738 95.0244,364.6738 Q95.6553,364.6738 96.2488,364.4041 Q96.8423,364.1343 97.4731,363.5532 Z "/><text fill="#000000" font-family="sans-serif" font-size="12" font-style="italic" lengthAdjust="spacingAndGlyphs" textLength="52" x="135" y="357.6016">«Groovy»</text><text fill="#000000" font-family="sans-serif" font-size="12" lengthAdjust="spacingAndGlyphs" textLength="104" x="109" y="371.7344">DynamicRPCClient</text><!--MD5=[738e549792f5fe5241e833c98817be01]
class org.consensusj.bitcoin.jsonrpc.BitcoinScriptingClient--><rect fill="#FEFECE" height="38.2656" id="org.consensusj.bitcoin.jsonrpc.BitcoinScriptingClient" style="stroke: #A80036; stroke-width: 1.5;" width="150" x="134" y="537"/><ellipse cx="149" cy="556.1328" fill="#ADD1B2" rx="11" ry="11" style="stroke: #A80036; stroke-width: 1.0;"/><path d="M151.4731,562.2759 Q150.8921,562.5747 150.2529,562.7241 Q149.6138,562.8735 148.9082,562.8735 Q146.4014,562.8735 145.0815,561.2217 Q143.7617,559.5698 143.7617,556.4487 Q143.7617,553.3193 145.0815,551.6675 Q146.4014,550.0156 148.9082,550.0156 Q149.6138,550.0156 150.2612,550.165 Q150.9087,550.3145 151.4731,550.6133 L151.4731,553.3359 Q150.8423,552.7549 150.2488,552.4851 Q149.6553,552.2153 149.0244,552.2153 Q147.6797,552.2153 146.9949,553.282 Q146.3101,554.3486 146.3101,556.4487 Q146.3101,558.5405 146.9949,559.6072 Q147.6797,560.6738 149.0244,560.6738 Q149.6553,560.6738 150.2488,560.4041 Q150.8423,560.1343 151.4731,559.5532 Z "/><text fill="#000000" font-family="sans-serif" font-size="12" font-style="italic" lengthAdjust="spacingAndGlyphs" textLength="52" x="196" y="553.6016">«Groovy»</text><text fill="#000000" font-family="sans-serif" font-size="12" lengthAdjust="spacingAndGlyphs" textLength="118" x="163" y="567.7344">BitcoinScriptingClient</text><!--MD5=[132fa7a91c448d41aa082d786b65b31e]
class org.consensusj.bitcoin.jsonrpc.BitcoinCLIClient--><rect fill="#FEFECE" height="38.2656" id="org.consensusj.bitcoin.jsonrpc.BitcoinCLIClient" style="stroke: #A80036; stroke-width: 1.5;" width="118" x="75" y="439"/><ellipse cx="90" cy="458.1328" fill="#ADD1B2" rx="11" ry="11" style="stroke: #A80036; stroke-width: 1.0;"/><path d="M92.4731,464.2759 Q91.8921,464.5747 91.2529,464.7241 Q90.6138,464.8735 89.9082,464.8735 Q87.4014,464.8735 86.0815,463.2217 Q84.7617,461.5698 84.7617,458.4487 Q84.7617,455.3193 86.0815,453.6675 Q87.4014,452.0156 89.9082,452.0156 Q90.6138,452.0156 91.2612,452.165 Q91.9087,452.3145 92.4731,452.6133 L92.4731,455.3359 Q91.8423,454.7549 91.2488,454.4851 Q90.6553,454.2153 90.0244,454.2153 Q88.6797,454.2153 87.9949,455.282 Q87.3101,456.3486 87.3101,458.4487 Q87.3101,460.5405 87.9949,461.6072 Q88.6797,462.6738 90.0244,462.6738 Q90.6553,462.6738 91.2488,462.4041 Q91.8423,462.1343 92.4731,461.5532 Z "/><text fill="#000000" font-family="sans-serif" font-size="12" font-style="italic" lengthAdjust="spacingAndGlyphs" textLength="52" x="121" y="455.6016">«Groovy»</text><text fill="#000000" font-family="sans-serif" font-size="12" lengthAdjust="spacingAndGlyphs" textLength="86" x="104" y="469.7344">BitcoinCLIClient</text><!--MD5=[48f320ba1369a0b7f321dfb16980e136]
class foundation.omni.rpc.OmniClient--><rect fill="#FEFECE" height="32" id="foundation.omni.rpc.OmniClient" style="stroke: #A80036; stroke-width: 1.5;" width="94" x="440" y="540"/><ellipse cx="455" cy="556" fill="#ADD1B2" rx="11" ry="11" style="stroke: #A80036; stroke-width: 1.0;"/><path d="M457.4731,562.1431 Q456.8921,562.4419 456.2529,562.5913 Q455.6138,562.7407 454.9082,562.7407 Q452.4014,562.7407 451.0815,561.0889 Q449.7617,559.437 449.7617,556.3159 Q449.7617,553.1865 451.0815,551.5347 Q452.4014,549.8828 454.9082,549.8828 Q455.6138,549.8828 456.2612,550.0322 Q456.9087,550.1816 457.4731,550.4805 L457.4731,553.2031 Q456.8423,552.6221 456.2488,552.3523 Q455.6553,552.0825 455.0244,552.0825 Q453.6797,552.0825 452.9949,553.1492 Q452.3101,554.2158 452.3101,556.3159 Q452.3101,558.4077 452.9949,559.4744 Q453.6797,560.541 455.0244,560.541 Q455.6553,560.541 456.2488,560.2712 Q456.8423,560.0015 457.4731,559.4204 Z "/><text fill="#000000" font-family="sans-serif" font-size="12" lengthAdjust="spacingAndGlyphs" textLength="62" x="469" y="560.5352">OmniClient</text><!--MD5=[c51396beaeea40b6dfd46a486d65eb2a]
reverse link org.consensusj.bitcoin.jsonrpc.UntypedRPCClient to org.consensusj.bitcoin.jsonrpc.AbstractRPCClient--><path d="M234.6,106.63 C248.94,121.46 265.52,138.61 277.17,150.66 " fill="none" id="org.consensusj.bitcoin.jsonrpc.UntypedRPCClient&lt;-org.consensusj.bitcoin.jsonrpc.AbstractRPCClient" style="stroke: #A80036; stroke-width: 1.0; stroke-dasharray: 7.0,7.0;"/><polygon fill="none" points="229.68,111.6,220.81,92.36,239.74,101.87,229.68,111.6" style="stroke: #A80036; stroke-width: 1.0;"/><!--MD5=[1d50bdb015fd96dfd6aefadeaaa2e6dc]
reverse link org.consensusj.bitcoin.jsonrpc.AbstractRPCClient to org.consensusj.bitcoin.jsonrpc.RPCClient--><path d="M299.02,204.27 C301.8,218.64 304.85,234.37 307.02,245.62 " fill="none" id="org.consensusj.bitcoin.jsonrpc.AbstractRPCClient&lt;-org.consensusj.bitcoin.jsonrpc.RPCClient" style="stroke: #A80036; stroke-width: 1.0;"/><polygon fill="none" points="292.19,205.81,295.26,184.84,305.93,203.15,292.19,205.81" style="stroke: #A80036; stroke-width: 1.0;"/><!--MD5=[a5ca26e9263903da5dec1fa0d1b4354e]
reverse link org.consensusj.bitcoin.jsonrpc.UntypedRPCClient to org.consensusj.bitcoin.jsonrpc.DynamicRpcMethodFallback--><path d="M191.55,111.56 C176.71,150.78 153.41,212.35 141.9,242.76 " fill="none" id="org.consensusj.bitcoin.jsonrpc.UntypedRPCClient&lt;-org.consensusj.bitcoin.jsonrpc.DynamicRpcMethodFallback" style="stroke: #A80036; stroke-width: 1.0; stroke-dasharray: 7.0,7.0;"/><polygon fill="none" points="184.99,109.1,198.62,92.87,198.09,114.05,184.99,109.1" style="stroke: #A80036; stroke-width: 1.0;"/><!--MD5=[8a9d41d0dd530b00b362bae902b26c41]
reverse link org.consensusj.bitcoin.jsonrpc.RPCClient to org.consensusj.bitcoin.jsonrpc.DynamicRPCClient--><path d="M265.86,289.16 C238.33,305.47 203.56,326.07 178.95,340.66 " fill="none" id="org.consensusj.bitcoin.jsonrpc.RPCClient&lt;-org.consensusj.bitcoin.jsonrpc.DynamicRPCClient" style="stroke: #A80036; stroke-width: 1.0;"/><polygon fill="none" points="261.9,283.37,282.67,279.2,269.03,295.41,261.9,283.37" style="stroke: #A80036; stroke-width: 1.0;"/><!--MD5=[8f8364d19118bfa10914500cde32890b]
reverse link org.consensusj.bitcoin.jsonrpc.DynamicRpcMethodFallback to org.consensusj.bitcoin.jsonrpc.DynamicRPCClient--><path d="M140.27,301.92 C142.09,315.33 144.04,329.72 145.52,340.7 " fill="none" id="org.consensusj.bitcoin.jsonrpc.DynamicRpcMethodFallback&lt;-org.consensusj.bitcoin.jsonrpc.DynamicRPCClient" style="stroke: #A80036; stroke-width: 1.0; stroke-dasharray: 7.0,7.0;"/><polygon fill="none" points="133.4,303.32,137.65,282.56,147.27,301.44,133.4,303.32" style="stroke: #A80036; stroke-width: 1.0;"/><!--MD5=[0ae1fb1a8848115908d7dbe20010b614]
reverse link org.consensusj.bitcoin.jsonrpc.RPCClient to org.consensusj.bitcoin.jsonrpc.BitcoinClient--><path d="M308.47,299.76 C307.83,314.98 307.13,331.8 306.64,343.61 " fill="none" id="org.consensusj.bitcoin.jsonrpc.RPCClient&lt;-org.consensusj.bitcoin.jsonrpc.BitcoinClient" style="stroke: #A80036; stroke-width: 1.0;"/><polygon fill="none" points="301.47,299.63,309.29,279.94,315.46,300.21,301.47,299.63" style="stroke: #A80036; stroke-width: 1.0;"/><!--MD5=[f516eecb5980a42e8201f221adf3561d]
reverse link org.consensusj.bitcoin.jsonrpc.BitcoinClient to org.consensusj.bitcoin.jsonrpc.BitcoinExtendedClient--><path d="M306,397.76 C306,412.98 306,429.8 306,441.61 " fill="none" id="org.consensusj.bitcoin.jsonrpc.BitcoinClient&lt;-org.consensusj.bitcoin.jsonrpc.BitcoinExtendedClient" style="stroke: #A80036; stroke-width: 1.0;"/><polygon fill="none" points="299,397.94,306,377.94,313,397.94,299,397.94" style="stroke: #A80036; stroke-width: 1.0;"/><!--MD5=[0fc2142f51230388abe931828c88a40a]
reverse link org.consensusj.bitcoin.jsonrpc.BitcoinExtendedClient to org.consensusj.bitcoin.jsonrpc.BitcoinScriptingClient--><path d="M275.43,489.26 C259.71,504.82 241.06,523.27 227.53,536.66 " fill="none" id="org.consensusj.bitcoin.jsonrpc.BitcoinExtendedClient&lt;-org.consensusj.bitcoin.jsonrpc.BitcoinScriptingClient" style="stroke: #A80036; stroke-width: 1.0;"/><polygon fill="none" points="270.2,484.58,289.34,475.49,280.05,494.53,270.2,484.58" style="stroke: #A80036; stroke-width: 1.0;"/><!--MD5=[8e9708e177a3205fa9b04e350fd5b0d3]
reverse link org.consensusj.bitcoin.jsonrpc.DynamicRpcMethodFallback to org.consensusj.bitcoin.jsonrpc.BitcoinScriptingClient--><path d="M95.28,295.73 C82.66,308.44 70.13,324.04 63,341 C39.55,396.75 26.54,425.34 58,477 C75.73,506.11 108.19,524.83 138.49,536.61 " fill="none" id="org.consensusj.bitcoin.jsonrpc.DynamicRpcMethodFallback&lt;-org.consensusj.bitcoin.jsonrpc.BitcoinScriptingClient" style="stroke: #A80036; stroke-width: 1.0; stroke-dasharray: 7.0,7.0;"/><polygon fill="none" points="90.37,290.73,109.81,282.3,99.87,301.02,90.37,290.73" style="stroke: #A80036; stroke-width: 1.0;"/><!--MD5=[95ac4c27fb303c6f70ae5fe90b49c6d5]
reverse link org.consensusj.bitcoin.jsonrpc.BitcoinClient to org.consensusj.bitcoin.jsonrpc.BitcoinCLIClient--><path d="M259.98,386.68 C230.62,403.08 193.25,423.93 166.86,438.66 " fill="none" id="org.consensusj.bitcoin.jsonrpc.BitcoinClient&lt;-org.consensusj.bitcoin.jsonrpc.BitcoinCLIClient" style="stroke: #A80036; stroke-width: 1.0;"/><polygon fill="none" points="256.17,380.8,277.04,377.16,262.99,393.02,256.17,380.8" style="stroke: #A80036; stroke-width: 1.0;"/><!--MD5=[b55617969e2a19a8861f2e5505783581]
reverse link org.consensusj.bitcoin.jsonrpc.BitcoinExtendedClient to foundation.omni.rpc.OmniClient--><path d="M369.12,482.45 C379.6,486.92 390.23,491.84 400,497 C423.91,509.64 449.46,527.21 466.64,539.7 " fill="none" id="org.consensusj.bitcoin.jsonrpc.BitcoinExtendedClient&lt;-foundation.omni.rpc.OmniClient" style="stroke: #A80036; stroke-width: 1.0;"/><polygon fill="none" points="366.7,489.02,350.82,474.99,371.98,476.05,366.7,489.02" style="stroke: #A80036; stroke-width: 1.0;"/><!--MD5=[4a5d71fca4897c440082333afeae19b8]
@startuml
skinparam packageStyle Rect
skinparam shadowing false
hide empty members

namespace org.consensusj.bitcoin.jsonrpc {
    interface UntypedRPCClient
    abstract class AbstractRPCClient

    class RPCClient
    class BitcoinClient
    class BitcoinExtendedClient

    interface DynamicRpcMethodFallback << Groovy, trait >>
    class DynamicRPCClient << Groovy >>
    class BitcoinScriptingClient << Groovy >>
    class BitcoinCLIClient << Groovy >>

    UntypedRPCClient <|.. AbstractRPCClient
    AbstractRPCClient <|- - RPCClient

    UntypedRPCClient <|.. DynamicRpcMethodFallback
    RPCClient <|- - DynamicRPCClient
    DynamicRpcMethodFallback <|.. DynamicRPCClient

    RPCClient <|- - BitcoinClient
    BitcoinClient <|- - BitcoinExtendedClient
    BitcoinExtendedClient <|- - BitcoinScriptingClient
    DynamicRpcMethodFallback <|.. BitcoinScriptingClient
    BitcoinClient <|- - BitcoinCLIClient
}


namespace foundation.omni.rpc {
    class OmniClient

    org.consensusj.bitcoin.jsonrpc.BitcoinExtendedClient <|- - OmniClient
}


@enduml

PlantUML version 1.2019.12(Sun Nov 03 02:24:54 PST 2019)
(APACHE source distribution)
Java Runtime: OpenJDK Runtime Environment
JVM: OpenJDK 64-Bit Server VM
Java Version: 17.0.6+10
Operating System: Mac OS X
Default Encoding: UTF-8
Language: en
Country: US
--></g></svg>