<?xml version="1.0" encoding="UTF-8" standalone="yes"?><svg xmlns="http://www.w3.org/2000/svg" xmlns:xlink="http://www.w3.org/1999/xlink" height="690px" style="width:747px;height:690px;" version="1.1" viewBox="0 0 747 690" width="747px"><defs/><g><rect fill="#FFFFFF" height="567" style="stroke: #000000; stroke-width: 2.0;" width="378" x="22" y="24"/><text fill="#000000" font-family="sans-serif" font-size="14" font-weight="bold" lengthAdjust="spacingAndGlyphs" textLength="193" x="114.5" y="39.5352">com.msgilligan.bitcoinj.rpc</text><rect fill="#FFFFFF" height="184" style="stroke: #000000; stroke-width: 2.0;" width="322" x="424" y="505"/><text fill="#000000" font-family="sans-serif" font-size="14" font-weight="bold" lengthAdjust="spacingAndGlyphs" textLength="144" x="513" y="520.5352">foundation.omni.rpc</text><rect fill="#FEFECE" height="32" style="stroke: #A80036; stroke-width: 1.5;" width="135" x="153.5" y="59"/><ellipse cx="168.5" cy="75" fill="#B4A7E5" rx="11" ry="11" style="stroke: #A80036; stroke-width: 1.0;"/><path d="M164.4277,70.7651 L164.4277,68.6069 L171.8071,68.6069 L171.8071,70.7651 L169.3418,70.7651 L169.3418,78.8418 L171.8071,78.8418 L171.8071,81 L164.4277,81 L164.4277,78.8418 L166.8931,78.8418 L166.8931,70.7651 Z "/><text fill="#000000" font-family="sans-serif" font-size="12" font-style="italic" lengthAdjust="spacingAndGlyphs" textLength="103" x="182.5" y="79.5352">UntypedRPCClient</text><rect fill="#FEFECE" height="32" style="stroke: #A80036; stroke-width: 1.5;" width="135" x="230.5" y="151"/><ellipse cx="245.5" cy="167" fill="#A9DCDF" rx="11" ry="11" style="stroke: #A80036; stroke-width: 1.0;"/><path d="M245.6133,162.3481 L244.4595,167.4199 L246.7754,167.4199 Z M244.1191,160.1069 L247.1157,160.1069 L250.4609,172.5 L248.0122,172.5 L247.2485,169.437 L243.9697,169.437 L243.2227,172.5 L240.7739,172.5 Z "/><text fill="#000000" font-family="sans-serif" font-size="12" font-style="italic" lengthAdjust="spacingAndGlyphs" textLength="103" x="259.5" y="171.5352">AbstractRPCClient</text><rect fill="#FEFECE" height="32" style="stroke: #A80036; stroke-width: 1.5;" width="87" x="267.5" y="246"/><ellipse cx="282.5" cy="262" fill="#ADD1B2" rx="11" ry="11" style="stroke: #A80036; stroke-width: 1.0;"/><path d="M285.4731,267.6431 Q284.8921,267.9419 284.2529,268.0913 Q283.6138,268.2407 282.9082,268.2407 Q280.4014,268.2407 279.0815,266.5889 Q277.7617,264.937 277.7617,261.8159 Q277.7617,258.6865 279.0815,257.0347 Q280.4014,255.3828 282.9082,255.3828 Q283.6138,255.3828 284.2612,255.5322 Q284.9087,255.6816 285.4731,255.9805 L285.4731,258.7031 Q284.8423,258.1221 284.2488,257.8523 Q283.6553,257.5825 283.0244,257.5825 Q281.6797,257.5825 280.9949,258.6492 Q280.3101,259.7158 280.3101,261.8159 Q280.3101,263.9077 280.9949,264.9744 Q281.6797,266.041 283.0244,266.041 Q283.6553,266.041 284.2488,265.7712 Q284.8423,265.5015 285.4731,264.9204 Z "/><text fill="#000000" font-family="sans-serif" font-size="12" lengthAdjust="spacingAndGlyphs" textLength="55" x="296.5" y="266.5352">RPCClient</text><rect fill="#FEFECE" height="32" style="stroke: #A80036; stroke-width: 1.5;" width="101" x="260.5" y="344"/><ellipse cx="275.5" cy="360" fill="#ADD1B2" rx="11" ry="11" style="stroke: #A80036; stroke-width: 1.0;"/><path d="M278.4731,365.6431 Q277.8921,365.9419 277.2529,366.0913 Q276.6138,366.2407 275.9082,366.2407 Q273.4014,366.2407 272.0815,364.5889 Q270.7617,362.937 270.7617,359.8159 Q270.7617,356.6865 272.0815,355.0347 Q273.4014,353.3828 275.9082,353.3828 Q276.6138,353.3828 277.2612,353.5322 Q277.9087,353.6816 278.4731,353.9805 L278.4731,356.7031 Q277.8423,356.1221 277.2488,355.8523 Q276.6553,355.5825 276.0244,355.5825 Q274.6797,355.5825 273.9949,356.6492 Q273.3101,357.7158 273.3101,359.8159 Q273.3101,361.9077 273.9949,362.9744 Q274.6797,364.041 276.0244,364.041 Q276.6553,364.041 277.2488,363.7712 Q277.8423,363.5015 278.4731,362.9204 Z "/><text fill="#000000" font-family="sans-serif" font-size="12" lengthAdjust="spacingAndGlyphs" textLength="69" x="289.5" y="364.5352">BitcoinClient</text><rect fill="#FEFECE" height="32" style="stroke: #A80036; stroke-width: 1.5;" width="156" x="75" y="442"/><ellipse cx="90" cy="458" fill="#ADD1B2" rx="11" ry="11" style="stroke: #A80036; stroke-width: 1.0;"/><path d="M92.9731,463.6431 Q92.3921,463.9419 91.7529,464.0913 Q91.1138,464.2407 90.4082,464.2407 Q87.9014,464.2407 86.5815,462.5889 Q85.2617,460.937 85.2617,457.8159 Q85.2617,454.6865 86.5815,453.0347 Q87.9014,451.3828 90.4082,451.3828 Q91.1138,451.3828 91.7612,451.5322 Q92.4087,451.6816 92.9731,451.9805 L92.9731,454.7031 Q92.3423,454.1221 91.7488,453.8523 Q91.1553,453.5825 90.5244,453.5825 Q89.1797,453.5825 88.4949,454.6492 Q87.8101,455.7158 87.8101,457.8159 Q87.8101,459.9077 88.4949,460.9744 Q89.1797,462.041 90.5244,462.041 Q91.1553,462.041 91.7488,461.7712 Q92.3423,461.5015 92.9731,460.9204 Z "/><text fill="#000000" font-family="sans-serif" font-size="12" lengthAdjust="spacingAndGlyphs" textLength="124" x="104" y="462.5352">BitcoinExtendedClient</text><rect fill="#FEFECE" height="38.2656" style="stroke: #A80036; stroke-width: 1.5;" width="151" x="81.5" y="243"/><ellipse cx="96.5" cy="262.1328" fill="#B4A7E5" rx="11" ry="11" style="stroke: #A80036; stroke-width: 1.0;"/><path d="M92.4277,257.8979 L92.4277,255.7397 L99.8071,255.7397 L99.8071,257.8979 L97.3418,257.8979 L97.3418,265.9746 L99.8071,265.9746 L99.8071,268.1328 L92.4277,268.1328 L92.4277,265.9746 L94.8931,265.9746 L94.8931,257.8979 Z "/><text fill="#000000" font-family="sans-serif" font-size="12" font-style="italic" lengthAdjust="spacingAndGlyphs" textLength="83" x="128.5" y="259.6016">«Groovy, trait»</text><text fill="#000000" font-family="sans-serif" font-size="12" font-style="italic" lengthAdjust="spacingAndGlyphs" textLength="119" x="110.5" y="273.7344">DynamicRpcMethodFallback</text><rect fill="#FEFECE" height="38.2656" style="stroke: #A80036; stroke-width: 1.5;" width="136" x="89" y="341"/><ellipse cx="104" cy="360.1328" fill="#ADD1B2" rx="11" ry="11" style="stroke: #A80036; stroke-width: 1.0;"/><path d="M106.9731,365.7759 Q106.3921,366.0747 105.7529,366.2241 Q105.1138,366.3735 104.4082,366.3735 Q101.9014,366.3735 100.5815,364.7217 Q99.2617,363.0698 99.2617,359.9487 Q99.2617,356.8193 100.5815,355.1675 Q101.9014,353.5156 104.4082,353.5156 Q105.1138,353.5156 105.7612,353.665 Q106.4087,353.8145 106.9731,354.1133 L106.9731,356.8359 Q106.3423,356.2549 105.7488,355.9851 Q105.1553,355.7153 104.5244,355.7153 Q103.1797,355.7153 102.4949,356.782 Q101.8101,357.8486 101.8101,359.9487 Q101.8101,362.0405 102.4949,363.1072 Q103.1797,364.1738 104.5244,364.1738 Q105.1553,364.1738 105.7488,363.9041 Q106.3423,363.6343 106.9731,363.0532 Z "/><text fill="#000000" font-family="sans-serif" font-size="12" font-style="italic" lengthAdjust="spacingAndGlyphs" textLength="52" x="144" y="357.6016">«Groovy»</text><text fill="#000000" font-family="sans-serif" font-size="12" lengthAdjust="spacingAndGlyphs" textLength="104" x="118" y="371.7344">DynamicRPCClient</text><rect fill="#FEFECE" height="38.2656" style="stroke: #A80036; stroke-width: 1.5;" width="150" x="58" y="537"/><ellipse cx="73" cy="556.1328" fill="#ADD1B2" rx="11" ry="11" style="stroke: #A80036; stroke-width: 1.0;"/><path d="M75.9731,561.7759 Q75.3921,562.0747 74.7529,562.2241 Q74.1138,562.3735 73.4082,562.3735 Q70.9014,562.3735 69.5815,560.7217 Q68.2617,559.0698 68.2617,555.9487 Q68.2617,552.8193 69.5815,551.1675 Q70.9014,549.5156 73.4082,549.5156 Q74.1138,549.5156 74.7612,549.665 Q75.4087,549.8145 75.9731,550.1133 L75.9731,552.8359 Q75.3423,552.2549 74.7488,551.9851 Q74.1553,551.7153 73.5244,551.7153 Q72.1797,551.7153 71.4949,552.782 Q70.8101,553.8486 70.8101,555.9487 Q70.8101,558.0405 71.4949,559.1072 Q72.1797,560.1738 73.5244,560.1738 Q74.1553,560.1738 74.7488,559.9041 Q75.3423,559.6343 75.9731,559.0532 Z "/><text fill="#000000" font-family="sans-serif" font-size="12" font-style="italic" lengthAdjust="spacingAndGlyphs" textLength="52" x="120" y="553.6016">«Groovy»</text><text fill="#000000" font-family="sans-serif" font-size="12" lengthAdjust="spacingAndGlyphs" textLength="118" x="87" y="567.7344">BitcoinScriptingClient</text><rect fill="#FEFECE" height="38.2656" style="stroke: #A80036; stroke-width: 1.5;" width="118" x="266" y="439"/><ellipse cx="281" cy="458.1328" fill="#ADD1B2" rx="11" ry="11" style="stroke: #A80036; stroke-width: 1.0;"/><path d="M283.9731,463.7759 Q283.3921,464.0747 282.7529,464.2241 Q282.1138,464.3735 281.4082,464.3735 Q278.9014,464.3735 277.5815,462.7217 Q276.2617,461.0698 276.2617,457.9487 Q276.2617,454.8193 277.5815,453.1675 Q278.9014,451.5156 281.4082,451.5156 Q282.1138,451.5156 282.7612,451.665 Q283.4087,451.8145 283.9731,452.1133 L283.9731,454.8359 Q283.3423,454.2549 282.7488,453.9851 Q282.1553,453.7153 281.5244,453.7153 Q280.1797,453.7153 279.4949,454.782 Q278.8101,455.8486 278.8101,457.9487 Q278.8101,460.0405 279.4949,461.1072 Q280.1797,462.1738 281.5244,462.1738 Q282.1553,462.1738 282.7488,461.9041 Q283.3423,461.6343 283.9731,461.0532 Z "/><text fill="#000000" font-family="sans-serif" font-size="12" font-style="italic" lengthAdjust="spacingAndGlyphs" textLength="52" x="312" y="455.6016">«Groovy»</text><text fill="#000000" font-family="sans-serif" font-size="12" lengthAdjust="spacingAndGlyphs" textLength="86" x="295" y="469.7344">BitcoinCLIClient</text><rect fill="#FEFECE" height="32" style="stroke: #A80036; stroke-width: 1.5;" width="94" x="449" y="540"/><ellipse cx="464" cy="556" fill="#ADD1B2" rx="11" ry="11" style="stroke: #A80036; stroke-width: 1.0;"/><path d="M466.9731,561.6431 Q466.3921,561.9419 465.7529,562.0913 Q465.1138,562.2407 464.4082,562.2407 Q461.9014,562.2407 460.5815,560.5889 Q459.2617,558.937 459.2617,555.8159 Q459.2617,552.6865 460.5815,551.0347 Q461.9014,549.3828 464.4082,549.3828 Q465.1138,549.3828 465.7612,549.5322 Q466.4087,549.6816 466.9731,549.9805 L466.9731,552.7031 Q466.3423,552.1221 465.7488,551.8523 Q465.1553,551.5825 464.5244,551.5825 Q463.1797,551.5825 462.4949,552.6492 Q461.8101,553.7158 461.8101,555.8159 Q461.8101,557.9077 462.4949,558.9744 Q463.1797,560.041 464.5244,560.041 Q465.1553,560.041 465.7488,559.7712 Q466.3423,559.5015 466.9731,558.9204 Z "/><text fill="#000000" font-family="sans-serif" font-size="12" lengthAdjust="spacingAndGlyphs" textLength="62" x="478" y="560.5352">OmniClient</text><rect fill="#FEFECE" height="38.2656" style="stroke: #A80036; stroke-width: 1.5;" width="143" x="586.5" y="635"/><ellipse cx="601.5" cy="654.1328" fill="#ADD1B2" rx="11" ry="11" style="stroke: #A80036; stroke-width: 1.0;"/><path d="M604.4731,659.7759 Q603.8921,660.0747 603.2529,660.2241 Q602.6138,660.3735 601.9082,660.3735 Q599.4014,660.3735 598.0815,658.7217 Q596.7617,657.0698 596.7617,653.9487 Q596.7617,650.8193 598.0815,649.1675 Q599.4014,647.5156 601.9082,647.5156 Q602.6138,647.5156 603.2612,647.665 Q603.9087,647.8145 604.4731,648.1133 L604.4731,650.8359 Q603.8423,650.2549 603.2488,649.9851 Q602.6553,649.7153 602.0244,649.7153 Q600.6797,649.7153 599.9949,650.782 Q599.3101,651.8486 599.3101,653.9487 Q599.3101,656.0405 599.9949,657.1072 Q600.6797,658.1738 602.0244,658.1738 Q602.6553,658.1738 603.2488,657.9041 Q603.8423,657.6343 604.4731,657.0532 Z "/><text fill="#000000" font-family="sans-serif" font-size="12" font-style="italic" lengthAdjust="spacingAndGlyphs" textLength="52" x="645" y="651.6016">«Groovy»</text><text fill="#000000" font-family="sans-serif" font-size="12" lengthAdjust="spacingAndGlyphs" textLength="111" x="615.5" y="665.7344">OmniScriptingClient</text><rect fill="#FEFECE" height="38.2656" style="stroke: #A80036; stroke-width: 1.5;" width="111" x="440.5" y="635"/><ellipse cx="455.5" cy="654.1328" fill="#ADD1B2" rx="11" ry="11" style="stroke: #A80036; stroke-width: 1.0;"/><path d="M458.4731,659.7759 Q457.8921,660.0747 457.2529,660.2241 Q456.6138,660.3735 455.9082,660.3735 Q453.4014,660.3735 452.0815,658.7217 Q450.7617,657.0698 450.7617,653.9487 Q450.7617,650.8193 452.0815,649.1675 Q453.4014,647.5156 455.9082,647.5156 Q456.6138,647.5156 457.2612,647.665 Q457.9087,647.8145 458.4731,648.1133 L458.4731,650.8359 Q457.8423,650.2549 457.2488,649.9851 Q456.6553,649.7153 456.0244,649.7153 Q454.6797,649.7153 453.9949,650.782 Q453.3101,651.8486 453.3101,653.9487 Q453.3101,656.0405 453.9949,657.1072 Q454.6797,658.1738 456.0244,658.1738 Q456.6553,658.1738 457.2488,657.9041 Q457.8423,657.6343 458.4731,657.0532 Z "/><text fill="#000000" font-family="sans-serif" font-size="12" font-style="italic" lengthAdjust="spacingAndGlyphs" textLength="52" x="483" y="651.6016">«Groovy»</text><text fill="#000000" font-family="sans-serif" font-size="12" lengthAdjust="spacingAndGlyphs" textLength="79" x="469.5" y="665.7344">OmniCLIClient</text><path d="M247.288,106.727 C260.062,121.657 274.836,138.926 285.131,150.958 " fill="none" style="stroke: #A80036; stroke-width: 1.0; stroke-dasharray: 7.0,7.0;"/><polygon fill="none" points="241.745,111.015,234.062,91.267,252.383,101.914,241.745,111.015" style="stroke: #A80036; stroke-width: 1.0;"/><path d="M302.944,203.372 C305.004,218.108 307.286,234.429 308.893,245.929 " fill="none" style="stroke: #A80036; stroke-width: 1.0;"/><polygon fill="none" points="295.983,204.134,300.147,183.357,309.848,202.195,295.983,204.134" style="stroke: #A80036; stroke-width: 1.0;"/><path d="M209.189,110.14 C195.62,149.363 173.864,212.251 163.242,242.956 " fill="none" style="stroke: #A80036; stroke-width: 1.0; stroke-dasharray: 7.0,7.0;"/><polygon fill="none" points="202.609,107.752,215.763,91.139,215.839,112.329,202.609,107.752" style="stroke: #A80036; stroke-width: 1.0;"/><path d="M269.283,289.005 C242.917,305.441 209.509,326.267 186.013,340.914 " fill="none" style="stroke: #A80036; stroke-width: 1.0;"/><polygon fill="none" points="265.923,282.851,286.598,278.211,273.329,294.732,265.923,282.851" style="stroke: #A80036; stroke-width: 1.0;"/><path d="M157,301.431 C157,314.979 157,329.587 157,340.698 " fill="none" style="stroke: #A80036; stroke-width: 1.0; stroke-dasharray: 7.0,7.0;"/><polygon fill="none" points="150,301.057,157,281.057,164,301.057,150,301.057" style="stroke: #A80036; stroke-width: 1.0;"/><path d="M311,298.543 C311,314.214 311,331.787 311,343.931 " fill="none" style="stroke: #A80036; stroke-width: 1.0;"/><polygon fill="none" points="304,298.424,311,278.424,318,298.424,304,298.424" style="stroke: #A80036; stroke-width: 1.0;"/><path d="M268.78,386.652 C239.778,404.274 202.261,427.069 177.918,441.86 " fill="none" style="stroke: #A80036; stroke-width: 1.0;"/><polygon fill="none" points="265.237,380.614,285.964,376.211,272.507,392.579,265.237,380.614" style="stroke: #A80036; stroke-width: 1.0;"/><path d="M145.679,494.139 C142.647,508.692 139.261,524.949 136.75,536.998 " fill="none" style="stroke: #A80036; stroke-width: 1.0;"/><polygon fill="none" points="138.855,492.576,149.787,474.424,152.56,495.431,138.855,492.576" style="stroke: #A80036; stroke-width: 1.0;"/><path d="M111.91,293.7 C96.5,306.513 80.7169,322.695 71,341 C50.3705,379.862 60.119,395.113 57,439 C55.8028,455.846 50.6384,461.355 57,477 C67.0417,501.695 89.0772,522.849 106.848,536.871 " fill="none" style="stroke: #A80036; stroke-width: 1.0; stroke-dasharray: 7.0,7.0;"/><polygon fill="none" points="108.06,287.829,128.179,281.179,116.599,298.924,108.06,287.829" style="stroke: #A80036; stroke-width: 1.0;"/><path d="M316.162,396.394 C318.275,410.882 320.628,427.02 322.375,438.998 " fill="none" style="stroke: #A80036; stroke-width: 1.0;"/><polygon fill="none" points="309.209,397.225,313.249,376.424,323.062,395.205,309.209,397.225" style="stroke: #A80036; stroke-width: 1.0;"/><path d="M250.323,476.94 C319.017,485.805 341.099,476.353 400,497 C428.667,507.049 458.044,526.388 476.621,539.964 " fill="none" style="stroke: #A80036; stroke-width: 1.0;"/><polygon fill="none" points="248.968,483.816,230.188,474.002,250.989,469.963,248.968,483.816" style="stroke: #A80036; stroke-width: 1.0;"/><path d="M539.082,582.53 C566.94,599.038 602.525,620.1259 627.48,634.9141 " fill="none" style="stroke: #A80036; stroke-width: 1.0;"/><polygon fill="none" points="535.307,588.43,521.669,572.211,542.444,576.386,535.307,588.43" style="stroke: #A80036; stroke-width: 1.0;"/><path d="M248.796,286.8 C290.153,299.615 338.648,317.648 379,341 C470.918,394.193 490.761,416.474 560,497 C598.994,542.351 633.312,604.686 648.978,634.9942 " fill="none" style="stroke: #A80036; stroke-width: 1.0; stroke-dasharray: 7.0,7.0;"/><polygon fill="none" points="246.598,293.449,229.439,281.015,250.606,280.035,246.598,293.449" style="stroke: #A80036; stroke-width: 1.0;"/><path d="M496,592.65 C496,607.0721 496,623.0902 496,634.9977 " fill="none" style="stroke: #A80036; stroke-width: 1.0;"/><polygon fill="none" points="489,592.424,496,572.424,503,592.424,489,592.424" style="stroke: #A80036; stroke-width: 1.0;"/></g></svg>