<?xml version="1.0" encoding="UTF-8" standalone="no"?><svg xmlns="http://www.w3.org/2000/svg" xmlns:xlink="http://www.w3.org/1999/xlink" contentScriptType="application/ecmascript" contentStyleType="text/css" height="700px" preserveAspectRatio="none" style="width:757px;height:700px;" version="1.1" viewBox="0 0 757 700" width="757px" zoomAndPan="magnify"><defs/><g><!--MD5=[4462e5a7ada4a6446805a6dfdef7c751]
cluster com.msgilligan.bitcoinj.rpc--><rect fill="#FFFFFF" height="567" style="stroke: #000000; stroke-width: 1.5;" width="378" x="22" y="24"/><text fill="#000000" font-family="sans-serif" font-size="14" font-weight="bold" lengthAdjust="spacingAndGlyphs" textLength="193" x="114.5" y="39.5352">com.msgilligan.bitcoinj.rpc</text><!--MD5=[10730ffe7c16199451d20e3909637dc1]
cluster foundation.omni.rpc--><rect fill="#FFFFFF" height="184" style="stroke: #000000; stroke-width: 1.5;" width="322" x="424" y="505"/><text fill="#000000" font-family="sans-serif" font-size="14" font-weight="bold" lengthAdjust="spacingAndGlyphs" textLength="144" x="513" y="520.5352">foundation.omni.rpc</text><!--MD5=[2093fa831d03916b5080c8c00fcc3cb1]
class com.msgilligan.bitcoinj.rpc.UntypedRPCClient--><rect fill="#FEFECE" height="32" id="com.msgilligan.bitcoinj.rpc.UntypedRPCClient" style="stroke: #A80036; stroke-width: 1.5;" width="135" x="131.5" y="59"/><ellipse cx="146.5" cy="75" fill="#B4A7E5" rx="11" ry="11" style="stroke: #A80036; stroke-width: 1.0;"/><path d="M142.9277,71.2651 L142.9277,69.1069 L150.3071,69.1069 L150.3071,71.2651 L147.8418,71.2651 L147.8418,79.3418 L150.3071,79.3418 L150.3071,81.5 L142.9277,81.5 L142.9277,79.3418 L145.3931,79.3418 L145.3931,71.2651 Z "/><text fill="#000000" font-family="sans-serif" font-size="12" font-style="italic" lengthAdjust="spacingAndGlyphs" textLength="103" x="160.5" y="79.5352">UntypedRPCClient</text><!--MD5=[09654a674cfefb307f31d85b42c36987]
class com.msgilligan.bitcoinj.rpc.AbstractRPCClient--><rect fill="#FEFECE" height="32" id="com.msgilligan.bitcoinj.rpc.AbstractRPCClient" style="stroke: #A80036; stroke-width: 1.5;" width="135" x="62.5" y="151"/><ellipse cx="77.5" cy="167" fill="#A9DCDF" rx="11" ry="11" style="stroke: #A80036; stroke-width: 1.0;"/><path d="M77.3633,162.3481 L76.2095,167.4199 L78.5254,167.4199 Z M75.8691,160.1069 L78.8657,160.1069 L82.2109,172.5 L79.7622,172.5 L78.9985,169.437 L75.7197,169.437 L74.9727,172.5 L72.5239,172.5 Z "/><text fill="#000000" font-family="sans-serif" font-size="12" font-style="italic" lengthAdjust="spacingAndGlyphs" textLength="103" x="91.5" y="171.5352">AbstractRPCClient</text><!--MD5=[e1947b391fe16628701a928dbea187d1]
class com.msgilligan.bitcoinj.rpc.RPCClient--><rect fill="#FEFECE" height="32" id="com.msgilligan.bitcoinj.rpc.RPCClient" style="stroke: #A80036; stroke-width: 1.5;" width="87" x="68.5" y="246"/><ellipse cx="83.5" cy="262" fill="#ADD1B2" rx="11" ry="11" style="stroke: #A80036; stroke-width: 1.0;"/><path d="M85.9731,268.1431 Q85.3921,268.4419 84.7529,268.5913 Q84.1138,268.7407 83.4082,268.7407 Q80.9014,268.7407 79.5815,267.0889 Q78.2617,265.437 78.2617,262.3159 Q78.2617,259.1865 79.5815,257.5347 Q80.9014,255.8828 83.4082,255.8828 Q84.1138,255.8828 84.7612,256.0322 Q85.4087,256.1816 85.9731,256.4805 L85.9731,259.2031 Q85.3423,258.6221 84.7488,258.3523 Q84.1553,258.0825 83.5244,258.0825 Q82.1797,258.0825 81.4949,259.1492 Q80.8101,260.2158 80.8101,262.3159 Q80.8101,264.4077 81.4949,265.4744 Q82.1797,266.541 83.5244,266.541 Q84.1553,266.541 84.7488,266.2712 Q85.3423,266.0015 85.9731,265.4204 Z "/><text fill="#000000" font-family="sans-serif" font-size="12" lengthAdjust="spacingAndGlyphs" textLength="55" x="97.5" y="266.5352">RPCClient</text><!--MD5=[2009f24862c7d1c04517d5280941209a]
class com.msgilligan.bitcoinj.rpc.BitcoinClient--><rect fill="#FEFECE" height="32" id="com.msgilligan.bitcoinj.rpc.BitcoinClient" style="stroke: #A80036; stroke-width: 1.5;" width="101" x="61.5" y="344"/><ellipse cx="76.5" cy="360" fill="#ADD1B2" rx="11" ry="11" style="stroke: #A80036; stroke-width: 1.0;"/><path d="M78.9731,366.1431 Q78.3921,366.4419 77.7529,366.5913 Q77.1138,366.7407 76.4082,366.7407 Q73.9014,366.7407 72.5815,365.0889 Q71.2617,363.437 71.2617,360.3159 Q71.2617,357.1865 72.5815,355.5347 Q73.9014,353.8828 76.4082,353.8828 Q77.1138,353.8828 77.7612,354.0322 Q78.4087,354.1816 78.9731,354.4805 L78.9731,357.2031 Q78.3423,356.6221 77.7488,356.3523 Q77.1553,356.0825 76.5244,356.0825 Q75.1797,356.0825 74.4949,357.1492 Q73.8101,358.2158 73.8101,360.3159 Q73.8101,362.4077 74.4949,363.4744 Q75.1797,364.541 76.5244,364.541 Q77.1553,364.541 77.7488,364.2712 Q78.3423,364.0015 78.9731,363.4204 Z "/><text fill="#000000" font-family="sans-serif" font-size="12" lengthAdjust="spacingAndGlyphs" textLength="69" x="90.5" y="364.5352">BitcoinClient</text><!--MD5=[76477ddddd1d217159a5fcfdbc722e5d]
class com.msgilligan.bitcoinj.rpc.BitcoinExtendedClient--><rect fill="#FEFECE" height="32" id="com.msgilligan.bitcoinj.rpc.BitcoinExtendedClient" style="stroke: #A80036; stroke-width: 1.5;" width="156" x="191" y="442"/><ellipse cx="206" cy="458" fill="#ADD1B2" rx="11" ry="11" style="stroke: #A80036; stroke-width: 1.0;"/><path d="M208.4731,464.1431 Q207.8921,464.4419 207.2529,464.5913 Q206.6138,464.7407 205.9082,464.7407 Q203.4014,464.7407 202.0815,463.0889 Q200.7617,461.437 200.7617,458.3159 Q200.7617,455.1865 202.0815,453.5347 Q203.4014,451.8828 205.9082,451.8828 Q206.6138,451.8828 207.2612,452.0322 Q207.9087,452.1816 208.4731,452.4805 L208.4731,455.2031 Q207.8423,454.6221 207.2488,454.3523 Q206.6553,454.0825 206.0244,454.0825 Q204.6797,454.0825 203.9949,455.1492 Q203.3101,456.2158 203.3101,458.3159 Q203.3101,460.4077 203.9949,461.4744 Q204.6797,462.541 206.0244,462.541 Q206.6553,462.541 207.2488,462.2712 Q207.8423,462.0015 208.4731,461.4204 Z "/><text fill="#000000" font-family="sans-serif" font-size="12" lengthAdjust="spacingAndGlyphs" textLength="124" x="220" y="462.5352">BitcoinExtendedClient</text><!--MD5=[09027bac9a12c554bc9c3cb12663ab1a]
class com.msgilligan.bitcoinj.rpc.DynamicRpcMethodFallback--><rect fill="#FEFECE" height="38.2656" id="com.msgilligan.bitcoinj.rpc.DynamicRpcMethodFallback" style="stroke: #A80036; stroke-width: 1.5;" width="193" x="190.5" y="243"/><ellipse cx="205.5" cy="262.1328" fill="#B4A7E5" rx="11" ry="11" style="stroke: #A80036; stroke-width: 1.0;"/><path d="M201.9277,258.3979 L201.9277,256.2397 L209.3071,256.2397 L209.3071,258.3979 L206.8418,258.3979 L206.8418,266.4746 L209.3071,266.4746 L209.3071,268.6328 L201.9277,268.6328 L201.9277,266.4746 L204.3931,266.4746 L204.3931,258.3979 Z "/><text fill="#000000" font-family="sans-serif" font-size="12" font-style="italic" lengthAdjust="spacingAndGlyphs" textLength="83" x="258.5" y="259.6016">«Groovy, trait»</text><text fill="#000000" font-family="sans-serif" font-size="12" font-style="italic" lengthAdjust="spacingAndGlyphs" textLength="161" x="219.5" y="273.7344">DynamicRpcMethodFallback</text><!--MD5=[7f290322819124ec4fa8798b7dd8932d]
class com.msgilligan.bitcoinj.rpc.DynamicRPCClient--><rect fill="#FEFECE" height="38.2656" id="com.msgilligan.bitcoinj.rpc.DynamicRPCClient" style="stroke: #A80036; stroke-width: 1.5;" width="136" x="205" y="341"/><ellipse cx="220" cy="360.1328" fill="#ADD1B2" rx="11" ry="11" style="stroke: #A80036; stroke-width: 1.0;"/><path d="M222.4731,366.2759 Q221.8921,366.5747 221.2529,366.7241 Q220.6138,366.8735 219.9082,366.8735 Q217.4014,366.8735 216.0815,365.2217 Q214.7617,363.5698 214.7617,360.4487 Q214.7617,357.3193 216.0815,355.6675 Q217.4014,354.0156 219.9082,354.0156 Q220.6138,354.0156 221.2612,354.165 Q221.9087,354.3145 222.4731,354.6133 L222.4731,357.3359 Q221.8423,356.7549 221.2488,356.4851 Q220.6553,356.2153 220.0244,356.2153 Q218.6797,356.2153 217.9949,357.282 Q217.3101,358.3486 217.3101,360.4487 Q217.3101,362.5405 217.9949,363.6072 Q218.6797,364.6738 220.0244,364.6738 Q220.6553,364.6738 221.2488,364.4041 Q221.8423,364.1343 222.4731,363.5532 Z "/><text fill="#000000" font-family="sans-serif" font-size="12" font-style="italic" lengthAdjust="spacingAndGlyphs" textLength="52" x="260" y="357.6016">«Groovy»</text><text fill="#000000" font-family="sans-serif" font-size="12" lengthAdjust="spacingAndGlyphs" textLength="104" x="234" y="371.7344">DynamicRPCClient</text><!--MD5=[51614c8a3646fd3ed7a9158ca87f89c1]
class com.msgilligan.bitcoinj.rpc.BitcoinScriptingClient--><rect fill="#FEFECE" height="38.2656" id="com.msgilligan.bitcoinj.rpc.BitcoinScriptingClient" style="stroke: #A80036; stroke-width: 1.5;" width="150" x="214" y="537"/><ellipse cx="229" cy="556.1328" fill="#ADD1B2" rx="11" ry="11" style="stroke: #A80036; stroke-width: 1.0;"/><path d="M231.4731,562.2759 Q230.8921,562.5747 230.2529,562.7241 Q229.6138,562.8735 228.9082,562.8735 Q226.4014,562.8735 225.0815,561.2217 Q223.7617,559.5698 223.7617,556.4487 Q223.7617,553.3193 225.0815,551.6675 Q226.4014,550.0156 228.9082,550.0156 Q229.6138,550.0156 230.2612,550.165 Q230.9087,550.3145 231.4731,550.6133 L231.4731,553.3359 Q230.8423,552.7549 230.2488,552.4851 Q229.6553,552.2153 229.0244,552.2153 Q227.6797,552.2153 226.9949,553.282 Q226.3101,554.3486 226.3101,556.4487 Q226.3101,558.5405 226.9949,559.6072 Q227.6797,560.6738 229.0244,560.6738 Q229.6553,560.6738 230.2488,560.4041 Q230.8423,560.1343 231.4731,559.5532 Z "/><text fill="#000000" font-family="sans-serif" font-size="12" font-style="italic" lengthAdjust="spacingAndGlyphs" textLength="52" x="276" y="553.6016">«Groovy»</text><text fill="#000000" font-family="sans-serif" font-size="12" lengthAdjust="spacingAndGlyphs" textLength="118" x="243" y="567.7344">BitcoinScriptingClient</text><!--MD5=[2d16c7c5c9b0ee06fc5dde9a1ef22f6b]
class com.msgilligan.bitcoinj.rpc.BitcoinCLIClient--><rect fill="#FEFECE" height="38.2656" id="com.msgilligan.bitcoinj.rpc.BitcoinCLIClient" style="stroke: #A80036; stroke-width: 1.5;" width="118" x="38" y="439"/><ellipse cx="53" cy="458.1328" fill="#ADD1B2" rx="11" ry="11" style="stroke: #A80036; stroke-width: 1.0;"/><path d="M55.4731,464.2759 Q54.8921,464.5747 54.2529,464.7241 Q53.6138,464.8735 52.9082,464.8735 Q50.4014,464.8735 49.0815,463.2217 Q47.7617,461.5698 47.7617,458.4487 Q47.7617,455.3193 49.0815,453.6675 Q50.4014,452.0156 52.9082,452.0156 Q53.6138,452.0156 54.2612,452.165 Q54.9087,452.3145 55.4731,452.6133 L55.4731,455.3359 Q54.8423,454.7549 54.2488,454.4851 Q53.6553,454.2153 53.0244,454.2153 Q51.6797,454.2153 50.9949,455.282 Q50.3101,456.3486 50.3101,458.4487 Q50.3101,460.5405 50.9949,461.6072 Q51.6797,462.6738 53.0244,462.6738 Q53.6553,462.6738 54.2488,462.4041 Q54.8423,462.1343 55.4731,461.5532 Z "/><text fill="#000000" font-family="sans-serif" font-size="12" font-style="italic" lengthAdjust="spacingAndGlyphs" textLength="52" x="84" y="455.6016">«Groovy»</text><text fill="#000000" font-family="sans-serif" font-size="12" lengthAdjust="spacingAndGlyphs" textLength="86" x="67" y="469.7344">BitcoinCLIClient</text><!--MD5=[48f320ba1369a0b7f321dfb16980e136]
class foundation.omni.rpc.OmniClient--><rect fill="#FEFECE" height="32" id="foundation.omni.rpc.OmniClient" style="stroke: #A80036; stroke-width: 1.5;" width="94" x="449" y="540"/><ellipse cx="464" cy="556" fill="#ADD1B2" rx="11" ry="11" style="stroke: #A80036; stroke-width: 1.0;"/><path d="M466.4731,562.1431 Q465.8921,562.4419 465.2529,562.5913 Q464.6138,562.7407 463.9082,562.7407 Q461.4014,562.7407 460.0815,561.0889 Q458.7617,559.437 458.7617,556.3159 Q458.7617,553.1865 460.0815,551.5347 Q461.4014,549.8828 463.9082,549.8828 Q464.6138,549.8828 465.2612,550.0322 Q465.9087,550.1816 466.4731,550.4805 L466.4731,553.2031 Q465.8423,552.6221 465.2488,552.3523 Q464.6553,552.0825 464.0244,552.0825 Q462.6797,552.0825 461.9949,553.1492 Q461.3101,554.2158 461.3101,556.3159 Q461.3101,558.4077 461.9949,559.4744 Q462.6797,560.541 464.0244,560.541 Q464.6553,560.541 465.2488,560.2712 Q465.8423,560.0015 466.4731,559.4204 Z "/><text fill="#000000" font-family="sans-serif" font-size="12" lengthAdjust="spacingAndGlyphs" textLength="62" x="478" y="560.5352">OmniClient</text><!--MD5=[06709a6d92144b41b3b799da65064757]
class foundation.omni.rpc.OmniScriptingClient--><rect fill="#FEFECE" height="38.2656" id="foundation.omni.rpc.OmniScriptingClient" style="stroke: #A80036; stroke-width: 1.5;" width="143" x="586.5" y="635"/><ellipse cx="601.5" cy="654.1328" fill="#ADD1B2" rx="11" ry="11" style="stroke: #A80036; stroke-width: 1.0;"/><path d="M603.9731,660.2759 Q603.3921,660.5747 602.7529,660.7241 Q602.1138,660.8735 601.4082,660.8735 Q598.9014,660.8735 597.5815,659.2217 Q596.2617,657.5698 596.2617,654.4487 Q596.2617,651.3193 597.5815,649.6675 Q598.9014,648.0156 601.4082,648.0156 Q602.1138,648.0156 602.7612,648.165 Q603.4087,648.3145 603.9731,648.6133 L603.9731,651.3359 Q603.3423,650.7549 602.7488,650.4851 Q602.1553,650.2153 601.5244,650.2153 Q600.1797,650.2153 599.4949,651.282 Q598.8101,652.3486 598.8101,654.4487 Q598.8101,656.5405 599.4949,657.6072 Q600.1797,658.6738 601.5244,658.6738 Q602.1553,658.6738 602.7488,658.4041 Q603.3423,658.1343 603.9731,657.5532 Z "/><text fill="#000000" font-family="sans-serif" font-size="12" font-style="italic" lengthAdjust="spacingAndGlyphs" textLength="52" x="645" y="651.6016">«Groovy»</text><text fill="#000000" font-family="sans-serif" font-size="12" lengthAdjust="spacingAndGlyphs" textLength="111" x="615.5" y="665.7344">OmniScriptingClient</text><!--MD5=[24103de0c4c37167de3feff15ed58340]
class foundation.omni.rpc.OmniCLIClient--><rect fill="#FEFECE" height="38.2656" id="foundation.omni.rpc.OmniCLIClient" style="stroke: #A80036; stroke-width: 1.5;" width="111" x="440.5" y="635"/><ellipse cx="455.5" cy="654.1328" fill="#ADD1B2" rx="11" ry="11" style="stroke: #A80036; stroke-width: 1.0;"/><path d="M457.9731,660.2759 Q457.3921,660.5747 456.7529,660.7241 Q456.1138,660.8735 455.4082,660.8735 Q452.9014,660.8735 451.5815,659.2217 Q450.2617,657.5698 450.2617,654.4487 Q450.2617,651.3193 451.5815,649.6675 Q452.9014,648.0156 455.4082,648.0156 Q456.1138,648.0156 456.7612,648.165 Q457.4087,648.3145 457.9731,648.6133 L457.9731,651.3359 Q457.3423,650.7549 456.7488,650.4851 Q456.1553,650.2153 455.5244,650.2153 Q454.1797,650.2153 453.4949,651.282 Q452.8101,652.3486 452.8101,654.4487 Q452.8101,656.5405 453.4949,657.6072 Q454.1797,658.6738 455.5244,658.6738 Q456.1553,658.6738 456.7488,658.4041 Q457.3423,658.1343 457.9731,657.5532 Z "/><text fill="#000000" font-family="sans-serif" font-size="12" font-style="italic" lengthAdjust="spacingAndGlyphs" textLength="52" x="483" y="651.6016">«Groovy»</text><text fill="#000000" font-family="sans-serif" font-size="12" lengthAdjust="spacingAndGlyphs" textLength="79" x="469.5" y="665.7344">OmniCLIClient</text><!--MD5=[d36dacc4f8d49a3a74c4d764f1ce90b5]
reverse link com.msgilligan.bitcoinj.rpc.UntypedRPCClient to com.msgilligan.bitcoinj.rpc.AbstractRPCClient--><path d="M175.07,107.21 C163.71,122.03 150.66,139.06 141.53,150.96 " fill="none" id="com.msgilligan.bitcoinj.rpc.UntypedRPCClient&lt;-com.msgilligan.bitcoinj.rpc.AbstractRPCClient" style="stroke: #A80036; stroke-width: 1.0; stroke-dasharray: 7.0,7.0;"/><polygon fill="none" points="169.57,102.88,187.3,91.27,180.68,111.4,169.57,102.88" style="stroke: #A80036; stroke-width: 1.0;"/><!--MD5=[34a14202185e528be1f9122509a15844]
reverse link com.msgilligan.bitcoinj.rpc.AbstractRPCClient to com.msgilligan.bitcoinj.rpc.RPCClient--><path d="M123.2,203.11 C120.34,217.92 117.16,234.36 114.92,245.93 " fill="none" id="com.msgilligan.bitcoinj.rpc.AbstractRPCClient&lt;-com.msgilligan.bitcoinj.rpc.RPCClient" style="stroke: #A80036; stroke-width: 1.0;"/><polygon fill="none" points="116.35,201.66,127.03,183.36,130.1,204.32,116.35,201.66" style="stroke: #A80036; stroke-width: 1.0;"/><!--MD5=[0e46bae2db57ad129791963ac9355eac]
reverse link com.msgilligan.bitcoinj.rpc.UntypedRPCClient to com.msgilligan.bitcoinj.rpc.DynamicRpcMethodFallback--><path d="M214.85,109.33 C233.48,148.49 263.71,212.04 278.42,242.96 " fill="none" id="com.msgilligan.bitcoinj.rpc.UntypedRPCClient&lt;-com.msgilligan.bitcoinj.rpc.DynamicRpcMethodFallback" style="stroke: #A80036; stroke-width: 1.0; stroke-dasharray: 7.0,7.0;"/><polygon fill="none" points="208.47,112.21,206.2,91.14,221.11,106.19,208.47,112.21" style="stroke: #A80036; stroke-width: 1.0;"/><!--MD5=[2dcbc05aee269c5f63b3031a45771d34]
reverse link com.msgilligan.bitcoinj.rpc.RPCClient to com.msgilligan.bitcoinj.rpc.DynamicRPCClient--><path d="M154.82,288.53 C182.5,305.04 217.87,326.13 242.67,340.91 " fill="none" id="com.msgilligan.bitcoinj.rpc.RPCClient&lt;-com.msgilligan.bitcoinj.rpc.DynamicRPCClient" style="stroke: #A80036; stroke-width: 1.0;"/><polygon fill="none" points="151.1,294.47,137.51,278.21,158.27,282.44,151.1,294.47" style="stroke: #A80036; stroke-width: 1.0;"/><!--MD5=[f89bef50d9f6c898113bf7e2cfe577e2]
reverse link com.msgilligan.bitcoinj.rpc.DynamicRpcMethodFallback to com.msgilligan.bitcoinj.rpc.DynamicRPCClient--><path d="M281.47,300.94 C279.47,314.63 277.31,329.45 275.67,340.7 " fill="none" id="com.msgilligan.bitcoinj.rpc.DynamicRpcMethodFallback&lt;-com.msgilligan.bitcoinj.rpc.DynamicRPCClient" style="stroke: #A80036; stroke-width: 1.0; stroke-dasharray: 7.0,7.0;"/><polygon fill="none" points="274.55,299.84,284.37,281.06,288.41,301.86,274.55,299.84" style="stroke: #A80036; stroke-width: 1.0;"/><!--MD5=[c3910b6c96c18e411657d81fd758202c]
reverse link com.msgilligan.bitcoinj.rpc.RPCClient to com.msgilligan.bitcoinj.rpc.BitcoinClient--><path d="M112,298.54 C112,314.21 112,331.79 112,343.93 " fill="none" id="com.msgilligan.bitcoinj.rpc.RPCClient&lt;-com.msgilligan.bitcoinj.rpc.BitcoinClient" style="stroke: #A80036; stroke-width: 1.0;"/><polygon fill="none" points="105,298.42,112,278.42,119,298.42,105,298.42" style="stroke: #A80036; stroke-width: 1.0;"/><!--MD5=[f27513694c235359a0e489a776b2afac]
reverse link com.msgilligan.bitcoinj.rpc.BitcoinClient to com.msgilligan.bitcoinj.rpc.BitcoinExtendedClient--><path d="M153.95,386.65 C182.77,404.27 220.05,427.07 244.24,441.86 " fill="none" id="com.msgilligan.bitcoinj.rpc.BitcoinClient&lt;-com.msgilligan.bitcoinj.rpc.BitcoinExtendedClient" style="stroke: #A80036; stroke-width: 1.0;"/><polygon fill="none" points="150.29,392.62,136.88,376.21,157.59,380.67,150.29,392.62" style="stroke: #A80036; stroke-width: 1.0;"/><!--MD5=[9b2766a9823a38dcbfbd9ce73c0f5906]
reverse link com.msgilligan.bitcoinj.rpc.BitcoinExtendedClient to com.msgilligan.bitcoinj.rpc.BitcoinScriptingClient--><path d="M276.32,494.14 C279.35,508.69 282.74,524.95 285.25,537 " fill="none" id="com.msgilligan.bitcoinj.rpc.BitcoinExtendedClient&lt;-com.msgilligan.bitcoinj.rpc.BitcoinScriptingClient" style="stroke: #A80036; stroke-width: 1.0;"/><polygon fill="none" points="269.44,495.43,272.21,474.42,283.15,492.58,269.44,495.43" style="stroke: #A80036; stroke-width: 1.0;"/><!--MD5=[ee70392c09ac5de64aaa091d83a48b1d]
reverse link com.msgilligan.bitcoinj.rpc.DynamicRpcMethodFallback to com.msgilligan.bitcoinj.rpc.BitcoinScriptingClient--><path d="M324.98,294.75 C337.79,307.67 350.67,323.66 358,341 C381.55,396.73 386.6,420.88 364,477 C354.1,501.57 332.36,522.74 314.82,536.8 " fill="none" id="com.msgilligan.bitcoinj.rpc.DynamicRpcMethodFallback&lt;-com.msgilligan.bitcoinj.rpc.BitcoinScriptingClient" style="stroke: #A80036; stroke-width: 1.0; stroke-dasharray: 7.0,7.0;"/><polygon fill="none" points="320.18,299.84,310.33,281.08,329.73,289.6,320.18,299.84" style="stroke: #A80036; stroke-width: 1.0;"/><!--MD5=[bebba83580b0979c86c922b649a16aa4]
reverse link com.msgilligan.bitcoinj.rpc.BitcoinClient to com.msgilligan.bitcoinj.rpc.BitcoinCLIClient--><path d="M106.47,396.39 C104.21,410.88 101.68,427.02 99.81,439 " fill="none" id="com.msgilligan.bitcoinj.rpc.BitcoinClient&lt;-com.msgilligan.bitcoinj.rpc.BitcoinCLIClient" style="stroke: #A80036; stroke-width: 1.0;"/><polygon fill="none" points="99.59,395.1,109.59,376.42,113.42,397.26,99.59,395.1" style="stroke: #A80036; stroke-width: 1.0;"/><!--MD5=[04fd78302eaf111182cd42a92fa40531]
reverse link com.msgilligan.bitcoinj.rpc.BitcoinExtendedClient to foundation.omni.rpc.OmniClient--><path d="M352.4,479.64 C368.47,484.61 384.96,490.41 400,497 C427.11,508.88 455.87,527.1 474.76,539.94 " fill="none" id="com.msgilligan.bitcoinj.rpc.BitcoinExtendedClient&lt;-foundation.omni.rpc.OmniClient" style="stroke: #A80036; stroke-width: 1.0;"/><polygon fill="none" points="350.38,486.34,333.15,474.01,354.31,472.91,350.38,486.34" style="stroke: #A80036; stroke-width: 1.0;"/><!--MD5=[712d09cdfca12c61479cd39230d1d78c]
reverse link foundation.omni.rpc.OmniClient to foundation.omni.rpc.OmniScriptingClient--><path d="M539.08,582.53 C566.94,599.04 602.52,620.13 627.48,634.91 " fill="none" id="foundation.omni.rpc.OmniClient&lt;-foundation.omni.rpc.OmniScriptingClient" style="stroke: #A80036; stroke-width: 1.0;"/><polygon fill="none" points="535.31,588.43,521.67,572.21,542.44,576.39,535.31,588.43" style="stroke: #A80036; stroke-width: 1.0;"/><!--MD5=[f5f00378c6e607bc587bc08ad1ef7f89]
reverse link com.msgilligan.bitcoinj.rpc.DynamicRpcMethodFallback to foundation.omni.rpc.OmniScriptingClient--><path d="M329.63,292.89 C386.76,334.32 489.27,413.57 561,497 C599.88,542.22 633.72,604.62 649.13,634.97 " fill="none" id="com.msgilligan.bitcoinj.rpc.DynamicRpcMethodFallback&lt;-foundation.omni.rpc.OmniScriptingClient" style="stroke: #A80036; stroke-width: 1.0; stroke-dasharray: 7.0,7.0;"/><polygon fill="none" points="325.29,298.39,313.11,281.05,333.44,287.01,325.29,298.39" style="stroke: #A80036; stroke-width: 1.0;"/><!--MD5=[df93e3825946b30710caaa80af6ba9c5]
reverse link foundation.omni.rpc.OmniClient to foundation.omni.rpc.OmniCLIClient--><path d="M496,592.65 C496,607.07 496,623.09 496,635 " fill="none" id="foundation.omni.rpc.OmniClient&lt;-foundation.omni.rpc.OmniCLIClient" style="stroke: #A80036; stroke-width: 1.0;"/><polygon fill="none" points="489,592.42,496,572.42,503,592.42,489,592.42" style="stroke: #A80036; stroke-width: 1.0;"/><!--MD5=[81b22849b9d3fd1d27235667060ccfcd]
@startuml
skinparam packageStyle Rect
skinparam shadowing false
hide empty members

namespace com.msgilligan.bitcoinj.rpc {
    interface UntypedRPCClient
    abstract class AbstractRPCClient

    class RPCClient
    class BitcoinClient
    class BitcoinExtendedClient

    interface DynamicRpcMethodFallback << Groovy, trait >>
    class DynamicRPCClient << Groovy >>
    class BitcoinScriptingClient << Groovy >>
    class BitcoinCLIClient << Groovy >>

    UntypedRPCClient <|.. AbstractRPCClient
    AbstractRPCClient <|- - RPCClient

    UntypedRPCClient <|.. DynamicRpcMethodFallback
    RPCClient <|- - DynamicRPCClient
    DynamicRpcMethodFallback <|.. DynamicRPCClient

    RPCClient <|- - BitcoinClient
    BitcoinClient <|- - BitcoinExtendedClient
    BitcoinExtendedClient <|- - BitcoinScriptingClient
    DynamicRpcMethodFallback <|.. BitcoinScriptingClient
    BitcoinClient <|- - BitcoinCLIClient
}


namespace foundation.omni.rpc {
    class OmniClient
    class OmniScriptingClient << Groovy >>
    class OmniCLIClient << Groovy >>


    com.msgilligan.bitcoinj.rpc.BitcoinExtendedClient <|- - OmniClient
    OmniClient <|- - OmniScriptingClient
    com.msgilligan.bitcoinj.rpc.DynamicRpcMethodFallback <|.. OmniScriptingClient
    OmniClient <|- - OmniCLIClient
}


@enduml

PlantUML version 1.2019.12(Sun Nov 03 02:24:54 PST 2019)
(APACHE source distribution)
Java Runtime: OpenJDK Runtime Environment
JVM: OpenJDK 64-Bit Server VM
Java Version: 11.0.10+9
Operating System: Mac OS X
Default Encoding: UTF-8
Language: en
Country: US
--></g></svg>